<svg xmlns="http://www.w3.org/2000/svg"  viewBox="0 0 64 64" width="48px" height="48px"><path d="M 32 8 C 25.832 8 20.304219 10.995859 16.824219 15.630859 C 18.207219 15.161859 19.822203 14.830078 21.658203 14.830078 C 22.505203 14.830078 23.368562 14.899109 24.226562 15.037109 C 26.139562 15.345109 27.611156 16.147469 28.910156 16.855469 C 30.211156 17.564469 31.057 18 32 18 C 32.943 18 33.788844 17.564469 35.089844 16.855469 C 36.388844 16.147469 37.860438 15.345109 39.773438 15.037109 C 40.631438 14.899109 41.494797 14.830078 42.341797 14.830078 C 44.177797 14.830078 45.792781 15.161859 47.175781 15.630859 C 43.695781 10.995859 38.169 8 32 8 z M 53 11 C 53 11 48.002166 11.647552 47.138672 18.814453 C 45.86432 18.266547 44.256827 17.830078 42.341797 17.830078 C 41.679797 17.830078 40.982 17.882 40.25 18 C 37.144 18.5 35.205 21 32 21 C 28.795 21 26.856 18.5 23.75 18 C 23.019 17.882 22.320203 17.830078 21.658203 17.830078 C 17.989203 17.830078 15.422234 19.427516 14.240234 20.353516 C 13.755234 21.646516 13.401984 23.004016 13.208984 24.416016 C 14.784984 25.284016 19.013578 27.284141 25.767578 28.119141 C 27.615578 27.370141 29.658 27 32 27 C 34.342 27 36.384422 27.370141 38.232422 28.119141 C 44.986422 27.283141 49.214016 25.284016 50.791016 24.416016 C 50.667862 23.515651 50.472738 22.639242 50.226562 21.785156 C 56.367298 20.643212 58 15 58 15 C 58 15 55.597782 14.466339 53.148438 15.003906 C 53.373248 12.876722 53 11 53 11 z M 25 22.5 C 26.406 22.5 27.373906 23.048813 28.003906 23.632812 C 28.629906 24.212812 28.287406 25.250328 27.441406 25.361328 C 26.840406 25.440328 26.041 25.5 25 25.5 C 23.821 25.5 22.952078 25.267328 22.330078 24.986328 C 21.557078 24.637328 21.543688 23.550781 22.304688 23.175781 C 23.009688 22.826781 23.95 22.5 25 22.5 z M 39 22.5 C 40.05 22.5 40.990313 22.825828 41.695312 23.173828 C 42.455312 23.549828 42.441922 24.637328 41.669922 24.986328 C 41.047922 25.267328 40.179 25.5 39 25.5 C 37.959 25.5 37.158641 25.440328 36.556641 25.361328 C 35.711641 25.250328 35.370094 24.211813 35.996094 23.632812 C 36.627094 23.048812 37.594 22.5 39 22.5 z M 11.107422 26.667969 C 8.5384219 29.442969 7.0136719 33.007656 7.0136719 36.597656 C 7.0136719 43.026656 11.887391 47.542453 19.525391 48.314453 C 22.295391 52.463453 26.98 55 32 55 C 37.02 55 41.704609 52.463453 44.474609 48.314453 C 52.112609 47.542453 56.986328 43.026656 56.986328 36.597656 C 56.986328 33.008656 55.461578 29.443969 52.892578 26.667969 C 51.882578 27.283969 48.243672 29.303297 42.138672 30.529297 C 42.248672 30.658297 42.334531 30.802078 42.394531 30.955078 C 42.587531 31.445078 42.51525 32.020078 42.15625 32.455078 C 41.85925 32.814078 41.431047 33 40.998047 33 C 40.662047 33 40.325875 32.88725 40.046875 32.65625 C 37.818875 30.81825 35.337 30 32 30 C 28.663 30 26.181125 30.819203 23.953125 32.658203 C 23.314125 33.185203 22.37075 33.094078 21.84375 32.455078 C 21.49875 32.036078 21.419937 31.488719 21.585938 31.011719 C 21.645938 30.837719 21.738281 30.672344 21.863281 30.527344 C 15.758281 29.302344 12.117422 27.283969 11.107422 26.667969 z M 44.072266 36.246094 C 44.634619 36.250937 45.186328 36.502188 45.517578 37.007812 C 46.046578 37.816813 45.845719 38.942641 45.011719 39.431641 C 43.081719 40.564641 39.936984 41.423563 37.208984 41.851562 C 34.644984 42.253563 32.077 42.3795 29.5 42.3125 C 28.776 42.2935 28.203656 41.691797 28.222656 40.966797 C 28.240656 40.268797 28.799281 39.7115 29.488281 39.6875 C 31.896281 39.6105 34.331875 39.329937 36.671875 38.835938 C 38.937875 38.356937 41.69775 37.304953 43.09375 36.501953 C 43.394125 36.329078 43.734854 36.243187 44.072266 36.246094 z"/></svg>