<svg version="1.1" xmlns="http://www.w3.org/2000/svg" xmlns:xlink="http://www.w3.org/1999/xlink" width="3300" height="2200" viewBox="0 0 3300 2200">
    <g id="Notes">
        <rect height="2200" id="artboard" style="fill:white;opacity:1" width="3300" x="0" y="0"></rect>
        <line style="fill:none;stroke:black;opacity:1;stroke-width:0.5;" x1="263" x2="3036" y1="292" y2="292"></line>
        <text style="stroke:none;fill:black;font-family:sans-serif;font-size:13;font-weight:bold;" transform="matrix(1 0 0 1 263 322)" data="{&quot;leading&quot;:&quot;1.3&quot;}">Weight/Scale Variations</text>
        <text style="stroke:none;fill:black;font-family:sans-serif;font-size:13;text-anchor:middle;" transform="matrix(1 0 0 1 559.711 322)" data="{&quot;leading&quot;:&quot;1.3&quot;}">Ultralight</text>
        <text style="stroke:none;fill:black;font-family:sans-serif;font-size:13;text-anchor:middle;" transform="matrix(1 0 0 1 856.422 322)" data="{&quot;leading&quot;:&quot;1.3&quot;}">Thin</text>
        <text style="stroke:none;fill:black;font-family:sans-serif;font-size:13;text-anchor:middle;" transform="matrix(1 0 0 1 1153.13 322)" data="{&quot;leading&quot;:&quot;1.3&quot;}">Light</text>
        <text style="stroke:none;fill:black;font-family:sans-serif;font-size:13;text-anchor:middle;" transform="matrix(1 0 0 1 1449.84 322)" data="{&quot;leading&quot;:&quot;1.3&quot;}">Regular</text>
        <text style="stroke:none;fill:black;font-family:sans-serif;font-size:13;text-anchor:middle;" transform="matrix(1 0 0 1 1746.56 322)" data="{&quot;leading&quot;:&quot;1.3&quot;}">Medium</text>
        <text style="stroke:none;fill:black;font-family:sans-serif;font-size:13;text-anchor:middle;" transform="matrix(1 0 0 1 2043.27 322)" data="{&quot;leading&quot;:&quot;1.3&quot;}">Semibold</text>
        <text style="stroke:none;fill:black;font-family:sans-serif;font-size:13;text-anchor:middle;" transform="matrix(1 0 0 1 2339.98 322)" data="{&quot;leading&quot;:&quot;1.3&quot;}">Bold</text>
        <text style="stroke:none;fill:black;font-family:sans-serif;font-size:13;text-anchor:middle;" transform="matrix(1 0 0 1 2636.69 322)" data="{&quot;leading&quot;:&quot;1.3&quot;}">Heavy</text>
        <text style="stroke:none;fill:black;font-family:sans-serif;font-size:13;text-anchor:middle;" transform="matrix(1 0 0 1 2933.4 322)" data="{&quot;leading&quot;:&quot;1.3&quot;}">Black</text>
        <line style="fill:none;stroke:black;opacity:1;stroke-width:0.5;" x1="263" x2="3036" y1="1903" y2="1903"></line>
        <g transform="matrix(1 0 0 1 263 1933)">
            <path d="M9.24805 0.830078Q10.8691 0.830078 12.2949 0.214844Q13.7207-0.400391 14.8096-1.49414Q15.8984-2.58789 16.5186-4.01367Q17.1387-5.43945 17.1387-7.05078Q17.1387-8.66211 16.5186-10.0879Q15.8984-11.5137 14.8047-12.6074Q13.7109-13.7012 12.2852-14.3164Q10.8594-14.9316 9.23828-14.9316Q7.62695-14.9316 6.20117-14.3164Q4.77539-13.7012 3.69141-12.6074Q2.60742-11.5137 1.9873-10.0879Q1.36719-8.66211 1.36719-7.05078Q1.36719-5.43945 1.9873-4.01367Q2.60742-2.58789 3.69629-1.49414Q4.78516-0.400391 6.21094 0.214844Q7.63672 0.830078 9.24805 0.830078ZM9.24805-0.654297Q7.91992-0.654297 6.7627-1.14746Q5.60547-1.64062 4.73145-2.51953Q3.85742-3.39844 3.36426-4.56055Q2.87109-5.72266 2.87109-7.05078Q2.87109-8.37891 3.35938-9.54102Q3.84766-10.7031 4.72168-11.582Q5.5957-12.4609 6.75293-12.9541Q7.91016-13.4473 9.23828-13.4473Q10.5762-13.4473 11.7334-12.9541Q12.8906-12.4609 13.7695-11.582Q14.6484-10.7031 15.1465-9.54102Q15.6445-8.37891 15.6445-7.05078Q15.6445-5.72266 15.1514-4.56055Q14.6582-3.39844 13.7842-2.51953Q12.9102-1.64062 11.748-1.14746Q10.5859-0.654297 9.24805-0.654297ZM5.83984-7.04102Q5.83984-6.71875 6.04492-6.51855Q6.25-6.31836 6.5918-6.31836L8.50586-6.31836L8.50586-4.39453Q8.50586-4.0625 8.70605-3.85742Q8.90625-3.65234 9.22852-3.65234Q9.56055-3.65234 9.76562-3.85742Q9.9707-4.0625 9.9707-4.39453L9.9707-6.31836L11.8945-6.31836Q12.2266-6.31836 12.4316-6.51855Q12.6367-6.71875 12.6367-7.04102Q12.6367-7.37305 12.4316-7.57812Q12.2266-7.7832 11.8945-7.7832L9.9707-7.7832L9.9707-9.69727Q9.9707-10.0391 9.76562-10.2441Q9.56055-10.4492 9.22852-10.4492Q8.90625-10.4492 8.70605-10.2441Q8.50586-10.0391 8.50586-9.69727L8.50586-7.7832L6.5918-7.7832Q6.25-7.7832 6.04492-7.57812Q5.83984-7.37305 5.83984-7.04102Z"></path>
        </g>
        <g transform="matrix(1 0 0 1 281.867 1933)">
            <path d="M11.709 2.91016Q13.75 2.91016 15.5518 2.12891Q17.3535 1.34766 18.7305-0.0292969Q20.1074-1.40625 20.8887-3.20801Q21.6699-5.00977 21.6699-7.05078Q21.6699-9.0918 20.8887-10.8936Q20.1074-12.6953 18.7305-14.0723Q17.3535-15.4492 15.5469-16.2305Q13.7402-17.0117 11.6992-17.0117Q9.6582-17.0117 7.85645-16.2305Q6.05469-15.4492 4.68262-14.0723Q3.31055-12.6953 2.5293-10.8936Q1.74805-9.0918 1.74805-7.05078Q1.74805-5.00977 2.5293-3.20801Q3.31055-1.40625 4.6875-0.0292969Q6.06445 1.34766 7.86621 2.12891Q9.66797 2.91016 11.709 2.91016ZM11.709 1.25Q9.98047 1.25 8.47656 0.605469Q6.97266-0.0390625 5.83496-1.17676Q4.69727-2.31445 4.05762-3.81836Q3.41797-5.32227 3.41797-7.05078Q3.41797-8.7793 4.05762-10.2832Q4.69727-11.7871 5.83008-12.9297Q6.96289-14.0723 8.4668-14.7119Q9.9707-15.3516 11.6992-15.3516Q13.4277-15.3516 14.9316-14.7119Q16.4355-14.0723 17.5781-12.9297Q18.7207-11.7871 19.3652-10.2832Q20.0098-8.7793 20.0098-7.05078Q20.0098-5.32227 19.3701-3.81836Q18.7305-2.31445 17.5928-1.17676Q16.4551-0.0390625 14.9463 0.605469Q13.4375 1.25 11.709 1.25ZM7.39258-7.04102Q7.39258-6.68945 7.62695-6.46484Q7.86133-6.24023 8.23242-6.24023L10.8789-6.24023L10.8789-3.57422Q10.8789-3.21289 11.1035-2.9834Q11.3281-2.75391 11.6797-2.75391Q12.0508-2.75391 12.2852-2.9834Q12.5195-3.21289 12.5195-3.57422L12.5195-6.24023L15.1758-6.24023Q15.5371-6.24023 15.7715-6.46484Q16.0059-6.68945 16.0059-7.04102Q16.0059-7.41211 15.7715-7.6416Q15.5371-7.87109 15.1758-7.87109L12.5195-7.87109L12.5195-10.5176Q12.5195-10.8984 12.2852-11.1279Q12.0508-11.3574 11.6797-11.3574Q11.3281-11.3574 11.1035-11.1279Q10.8789-10.8984 10.8789-10.5176L10.8789-7.87109L8.23242-7.87109Q7.85156-7.87109 7.62207-7.6416Q7.39258-7.41211 7.39258-7.04102Z"></path>
        </g>
        <g transform="matrix(1 0 0 1 305.646 1933)">
            <path d="M14.9707 5.66406Q17.0605 5.66406 18.96 5.01465Q20.8594 4.36523 22.4512 3.19336Q24.043 2.02148 25.2197 0.429688Q26.3965-1.16211 27.0459-3.06641Q27.6953-4.9707 27.6953-7.05078Q27.6953-9.14062 27.0459-11.04Q26.3965-12.9395 25.2197-14.5312Q24.043-16.123 22.4512-17.2998Q20.8594-18.4766 18.9551-19.126Q17.0508-19.7754 14.9609-19.7754Q12.8711-19.7754 10.9717-19.126Q9.07227-18.4766 7.48535-17.2998Q5.89844-16.123 4.72168-14.5312Q3.54492-12.9395 2.90039-11.04Q2.25586-9.14062 2.25586-7.05078Q2.25586-4.9707 2.90527-3.06641Q3.55469-1.16211 4.72656 0.429688Q5.89844 2.02148 7.49023 3.19336Q9.08203 4.36523 10.9814 5.01465Q12.8809 5.66406 14.9707 5.66406ZM14.9707 3.84766Q13.1641 3.84766 11.5283 3.2959Q9.89258 2.74414 8.53516 1.74805Q7.17773 0.751953 6.17676-0.610352Q5.17578-1.97266 4.62891-3.6084Q4.08203-5.24414 4.08203-7.05078Q4.08203-8.86719 4.62891-10.5029Q5.17578-12.1387 6.17188-13.501Q7.16797-14.8633 8.52539-15.8594Q9.88281-16.8555 11.5186-17.4023Q13.1543-17.9492 14.9609-17.9492Q16.7773-17.9492 18.4131-17.4023Q20.0488-16.8555 21.4111-15.8594Q22.7734-14.8633 23.7695-13.501Q24.7656-12.1387 25.3174-10.5029Q25.8691-8.86719 25.8691-7.05078Q25.8789-5.24414 25.332-3.6084Q24.7852-1.97266 23.7842-0.610352Q22.7832 0.751953 21.4209 1.74805Q20.0586 2.74414 18.4229 3.2959Q16.7871 3.84766 14.9707 3.84766ZM9.45312-7.04102Q9.45312-6.66016 9.71191-6.41113Q9.9707-6.16211 10.3711-6.16211L14.0625-6.16211L14.0625-2.46094Q14.0625-2.06055 14.3115-1.80664Q14.5605-1.55273 14.9414-1.55273Q15.3516-1.55273 15.6055-1.80664Q15.8594-2.06055 15.8594-2.46094L15.8594-6.16211L19.5605-6.16211Q19.9609-6.16211 20.2148-6.41113Q20.4688-6.66016 20.4688-7.04102Q20.4688-7.45117 20.2148-7.70508Q19.9609-7.95898 19.5605-7.95898L15.8594-7.95898L15.8594-11.6504Q15.8594-12.0605 15.6055-12.3145Q15.3516-12.5684 14.9414-12.5684Q14.5605-12.5684 14.3115-12.3096Q14.0625-12.0508 14.0625-11.6504L14.0625-7.95898L10.3711-7.95898Q9.96094-7.95898 9.70703-7.70508Q9.45312-7.45117 9.45312-7.04102Z"></path>
        </g>
        <text style="stroke:none;fill:black;font-family:sans-serif;font-size:13;font-weight:bold;" transform="matrix(1 0 0 1 263 1953)" data="{&quot;leading&quot;:&quot;1.3&quot;}">Design Variations</text>
        <text style="stroke:none;fill:black;font-family:sans-serif;font-size:13;" transform="matrix(1 0 0 1 263 1971)" data="{&quot;leading&quot;:&quot;1.3&quot;}">Symbols are supported in up to nine weights and three scales.</text>
        <text style="stroke:none;fill:black;font-family:sans-serif;font-size:13;" transform="matrix(1 0 0 1 263 1989)" data="{&quot;leading&quot;:&quot;1.3&quot;}">For optimal layout with text and other symbols, vertically align</text>
        <text style="stroke:none;fill:black;font-family:sans-serif;font-size:13;" transform="matrix(1 0 0 1 263 2007)" data="{&quot;leading&quot;:&quot;1.3&quot;}">symbols with the adjacent text.</text>
        <line style="fill:none;stroke:#00AEEF;stroke-width:0.5;opacity:1.0;" x1="776" x2="776" y1="1919" y2="1933"></line>
        <g transform="matrix(1 0 0 1 776 1933)">
            <path d="M3.31055 0.15625Q3.70117 0.15625 3.91602-0.00976562Q4.13086-0.175781 4.26758-0.585938L5.52734-4.0332L11.2891-4.0332L12.5488-0.585938Q12.6855-0.175781 12.9004-0.00976562Q13.1152 0.15625 13.4961 0.15625Q13.8867 0.15625 14.1162-0.0585938Q14.3457-0.273438 14.3457-0.644531Q14.3457-0.869141 14.2383-1.17188L9.6582-13.3691Q9.48242-13.8184 9.17969-14.043Q8.87695-14.2676 8.4082-14.2676Q7.5-14.2676 7.17773-13.3789L2.59766-1.16211Q2.49023-0.859375 2.49023-0.634766Q2.49023-0.263672 2.70996-0.0537109Q2.92969 0.15625 3.31055 0.15625ZM6.00586-5.51758L8.37891-12.0898L8.42773-12.0898L10.8008-5.51758Z"></path>
        </g>
        <line style="fill:none;stroke:#00AEEF;stroke-width:0.5;opacity:1.0;" x1="793.197" x2="793.197" y1="1919" y2="1933"></line>
        <text style="stroke:none;fill:black;font-family:sans-serif;font-size:13;font-weight:bold;" transform="matrix(1 0 0 1 776 1953)" data="{&quot;leading&quot;:&quot;1.3&quot;}">Margins</text>
        <text style="stroke:none;fill:black;font-family:sans-serif;font-size:13;" transform="matrix(1 0 0 1 776 1971)" data="{&quot;leading&quot;:&quot;1.3&quot;}">Leading and trailing margins on the left and right side of each symbol</text>
        <text style="stroke:none;fill:black;font-family:sans-serif;font-size:13;" transform="matrix(1 0 0 1 776 1989)" data="{&quot;leading&quot;:&quot;1.3&quot;}">can be adjusted by modifying the x-location of the margin guidelines.</text>
        <text style="stroke:none;fill:black;font-family:sans-serif;font-size:13;" transform="matrix(1 0 0 1 776 2007)" data="{&quot;leading&quot;:&quot;1.3&quot;}">Modifications are automatically applied proportionally to all</text>
        <text style="stroke:none;fill:black;font-family:sans-serif;font-size:13;" transform="matrix(1 0 0 1 776 2025)" data="{&quot;leading&quot;:&quot;1.3&quot;}">scales and weights.</text>
        <g transform="matrix(1 0 0 1 1289 1933)">
            <path d="M2.8418 1.86523L4.54102 3.57422Q5.18555 4.22852 5.90332 4.17969Q6.62109 4.13086 7.31445 3.35938L18.0078-8.42773L17.041-9.4043L6.42578 2.27539Q6.16211 2.57812 5.89355 2.61719Q5.625 2.65625 5.27344 2.30469L4.10156 1.14258Q3.75 0.791016 3.79395 0.522461Q3.83789 0.253906 4.14062-0.0195312L15.6152-10.8203L14.6387-11.7871L3.04688-0.898438Q2.30469-0.214844 2.25098 0.498047Q2.19727 1.21094 2.8418 1.86523ZM9.25781-16.3281Q8.94531-16.0254 8.90625-15.6348Q8.86719-15.2441 9.04297-14.9512Q9.21875-14.6777 9.55566-14.541Q9.89258-14.4043 10.3809-14.5215Q11.4746-14.7754 12.5977-14.7314Q13.7207-14.6875 14.7949-13.9844L14.209-12.5293Q13.9551-11.9043 14.0674-11.4404Q14.1797-10.9766 14.5801-10.5664L16.875-8.25195Q17.2363-7.88086 17.5781-7.82227Q17.9199-7.76367 18.3398-7.8418L19.4043-8.03711L20.0684-7.36328L20.0293-6.80664Q20-6.43555 20.1221-6.12305Q20.2441-5.81055 20.6055-5.44922L21.3672-4.70703Q21.7285-4.3457 22.1533-4.33105Q22.5781-4.31641 22.9297-4.66797L25.8398-7.58789Q26.1914-7.93945 26.1816-8.35449Q26.1719-8.76953 25.8105-9.13086L25.0391-9.89258Q24.6875-10.2539 24.3799-10.3857Q24.0723-10.5176 23.7109-10.4883L23.1348-10.4395L22.4902-11.0742L22.7344-12.1973Q22.832-12.6172 22.6953-12.9834Q22.5586-13.3496 22.1191-13.7891L19.9219-15.9766Q18.6719-17.2168 17.2607-17.8369Q15.8496-18.457 14.4189-18.4814Q12.9883-18.5059 11.665-17.959Q10.3418-17.4121 9.25781-16.3281ZM10.752-15.957Q11.6602-16.6211 12.7002-16.9043Q13.7402-17.1875 14.8047-17.085Q15.8691-16.9824 16.8701-16.5137Q17.8711-16.0449 18.7012-15.2051L21.1328-12.793Q21.3086-12.6172 21.3525-12.4512Q21.3965-12.2852 21.3379-12.0312L21.0156-10.5469L22.5195-9.0625L23.5059-9.12109Q23.6914-9.13086 23.7891-9.09668Q23.8867-9.0625 24.0332-8.91602L24.6094-8.33984L22.168-5.89844L21.5918-6.47461Q21.4453-6.62109 21.4062-6.71875Q21.3672-6.81641 21.377-7.01172L21.4453-7.98828L19.9512-9.47266L18.4277-9.21875Q18.1836-9.16992 18.042-9.2041Q17.9004-9.23828 17.7148-9.41406L15.7129-11.416Q15.5176-11.5918 15.4932-11.7529Q15.4688-11.9141 15.5859-12.1875L16.4648-14.2773Q15.293-15.3711 13.8281-15.791Q12.3633-16.2109 10.8398-15.7617Q10.7227-15.7324 10.6885-15.8057Q10.6543-15.8789 10.752-15.957Z"></path>
        </g>
        <text style="stroke:none;fill:black;font-family:sans-serif;font-size:13;font-weight:bold;" transform="matrix(1 0 0 1 1289 1953)" data="{&quot;leading&quot;:&quot;1.3&quot;}">Exporting</text>
        <text style="stroke:none;fill:black;font-family:sans-serif;font-size:13;" transform="matrix(1 0 0 1 1289 1971)" data="{&quot;leading&quot;:&quot;1.3&quot;}">Symbols should be outlined when exporting to ensure the</text>
        <text style="stroke:none;fill:black;font-family:sans-serif;font-size:13;" transform="matrix(1 0 0 1 1289 1989)" data="{&quot;leading&quot;:&quot;1.3&quot;}">design is preserved when submitting to Xcode.</text>
        <text id="template-version" style="stroke:none;fill:black;font-family:sans-serif;font-size:13;text-anchor:end;" transform="matrix(1 0 0 1 3036 1933)" data="{&quot;leading&quot;:&quot;1.3&quot;}">Template v.3.0</text>
        <text style="stroke:none;fill:black;font-family:sans-serif;font-size:13;text-anchor:end;" transform="matrix(1 0 0 1 3036 1951)" data="{&quot;leading&quot;:&quot;1.3&quot;}">Requires Xcode 13 or greater</text>
        <text id="descriptive-name" style="stroke:none;fill:black;font-family:sans-serif;font-size:13;text-anchor:end;" transform="matrix(1 0 0 1 3036 1969)" data="{&quot;leading&quot;:&quot;1.3&quot;}">Generated from custom.pencil.circle</text>
        <text style="stroke:none;fill:black;font-family:sans-serif;font-size:13;text-anchor:end;" transform="matrix(1 0 0 1 3036 1987)" data="{&quot;leading&quot;:&quot;1.3&quot;}">Typeset at 100 points</text>
        <text style="stroke:none;fill:black;font-family:sans-serif;font-size:13;" transform="matrix(1 0 0 1 263 726)" data="{&quot;leading&quot;:&quot;1.3&quot;}">Small</text>
        <text style="stroke:none;fill:black;font-family:sans-serif;font-size:13;" transform="matrix(1 0 0 1 263 1156)" data="{&quot;leading&quot;:&quot;1.3&quot;}">Medium</text>
        <text style="stroke:none;fill:black;font-family:sans-serif;font-size:13;" transform="matrix(1 0 0 1 263 1586)" data="{&quot;leading&quot;:&quot;1.3&quot;}">Large</text>
    </g>
    <g id="Guides">
        <g id="H-reference" style="fill:#27AAE1;stroke:none;" transform="matrix(1 0 0 1 339 696)">
            <path d="M0.976562 0L3.66211 0L29.3457-67.1387L30.0293-67.1387L30.0293-70.459L28.125-70.459ZM11.6699-24.4629L46.9727-24.4629L46.2402-26.709L12.4512-26.709ZM55.127 0L57.7637 0L30.6152-70.459L29.4434-70.459L29.4434-67.1387Z"></path>
        </g>
        <line id="Baseline-S" style="fill:none;stroke:#27AAE1;opacity:1;stroke-width:0.5;" x1="263" x2="3036" y1="696" y2="696"></line>
        <line id="Capline-S" style="fill:none;stroke:#27AAE1;opacity:1;stroke-width:0.5;" x1="263" x2="3036" y1="625.541" y2="625.541"></line>
        <g id="H-reference" style="fill:#27AAE1;stroke:none;" transform="matrix(1 0 0 1 339 1126)">
            <path d="M0.976562 0L3.66211 0L29.3457-67.1387L30.0293-67.1387L30.0293-70.459L28.125-70.459ZM11.6699-24.4629L46.9727-24.4629L46.2402-26.709L12.4512-26.709ZM55.127 0L57.7637 0L30.6152-70.459L29.4434-70.459L29.4434-67.1387Z"></path>
        </g>
        <line id="Baseline-M" style="fill:none;stroke:#27AAE1;opacity:1;stroke-width:0.5;" x1="263" x2="3036" y1="1126" y2="1126"></line>
        <line id="Capline-M" style="fill:none;stroke:#27AAE1;opacity:1;stroke-width:0.5;" x1="263" x2="3036" y1="1055.54" y2="1055.54"></line>
        <g id="H-reference" style="fill:#27AAE1;stroke:none;" transform="matrix(1 0 0 1 339 1556)">
            <path d="M0.976562 0L3.66211 0L29.3457-67.1387L30.0293-67.1387L30.0293-70.459L28.125-70.459ZM11.6699-24.4629L46.9727-24.4629L46.2402-26.709L12.4512-26.709ZM55.127 0L57.7637 0L30.6152-70.459L29.4434-70.459L29.4434-67.1387Z"></path>
        </g>
        <line id="Baseline-L" style="fill:none;stroke:#27AAE1;opacity:1;stroke-width:0.5;" x1="263" x2="3036" y1="1556" y2="1556"></line>
        <line id="Capline-L" style="fill:none;stroke:#27AAE1;opacity:1;stroke-width:0.5;" x1="263" x2="3036" y1="1485.54" y2="1485.54"></line>
        <line id="left-margin-Ultralight-S" style="fill:none;stroke:#00AEEF;stroke-width:0.5;opacity:1.0;" x1="507.60099853515624" x2="507.60099853515624" y1="600.784" y2="720.121"></line>
        <line id="right-margin-Ultralight-S" style="fill:none;stroke:#00AEEF;stroke-width:0.5;opacity:1.0;" x1="611.8209985351563" x2="611.8209985351563" y1="600.784" y2="720.121"></line>
        <line id="left-margin-Regular-S" style="fill:none;stroke:#00AEEF;stroke-width:0.5;opacity:1.0;" x1="1393.7125006484985" x2="1393.7125006484985" y1="600.784" y2="720.121"></line>
        <line id="right-margin-Regular-S" style="fill:none;stroke:#00AEEF;stroke-width:0.5;opacity:1.0;" x1="1505.9774407577515" x2="1505.9774407577515" y1="600.784" y2="720.121"></line>
        <line id="left-margin-Black-S" style="fill:none;stroke:#00AEEF;stroke-width:0.5;opacity:1.0;" x1="2872.5227732658386" x2="2872.5227732658386" y1="600.784" y2="720.121"></line>
        <line id="right-margin-Black-S" style="fill:none;stroke:#00AEEF;stroke-width:0.5;opacity:1.0;" x1="2994.2772755622864" x2="2994.2772755622864" y1="600.784" y2="720.121"></line>
    </g>
<g id="Symbols"><g id="Ultralight-S" transform="matrix(1,0,0,1,504.96099853515625,606.0205078125)"><path d="M77.22378 64.80648c0.47742 0.7730699999999999 0.24528 1.7979899999999998-0.53655 2.26008-4.1237699999999995 2.44404-8.63736 3.3945-13.0305 4.15224-4.40628 0.70737-8.84103 1.02711-13.28892 0.96798-0.68109-0.00876-1.22421-0.56721-1.2154500000000001-1.2483 0.00876-0.6679499999999999 0.55407-1.20231 1.2154500000000001-1.2154500000000001 4.2880199999999995-0.07665000000000001 8.58918-0.5234099999999999 12.783029999999998-1.33371 4.156619999999999-0.8321999999999999 8.42274-2.03013 11.81067-4.11939C75.73458 63.7947 76.74855000000001 64.03341 77.22378 64.80648z"></path><path d="M81.03 36.354l3.40326 10.511999999999999C84.43326 46.86599999999999 72.27 50.37 54.75 50.37s-29.68326-3.504-29.68326-3.504L28.47 36.354c0 0 5.35455-7.07151 14.14959-5.255999999999999C46.86599999999999 31.974 50.37 36.354 54.75 36.354s7.884-4.38 12.13041-5.255999999999999C75.67545 29.28249 81.03 36.354 81.03 36.354zM46.76526 45.30891c1.4826300000000001-0.19271999999999997 2.0805-2.01261 0.98331-3.0265799999999996C46.64481 41.2596 44.949749999999995 40.296 42.486 40.296c-1.8396 0-3.4864800000000002 0.57159-4.72164 1.1826-1.33152 0.6569999999999999-1.30962 2.56449 0.0438 3.1755 1.08843 0.49275 2.61267 0.8978999999999999 4.67784 0.8978999999999999C44.31027 45.552 45.711870000000005 45.44687999999999 46.76526 45.30891zM71.69183999999998 44.6541c1.3534199999999998-0.61101 1.3753199999999999-2.5185 0.0438-3.1755-1.2351599999999998-0.61101-2.8842299999999996-1.1826-4.72164-1.1826-2.46375 0-4.15881 0.9636-5.26257 1.98633-1.0971899999999999 1.01616-0.49713 2.83386 0.98331 3.0265799999999996 1.0533899999999998 0.13797 2.45499 0.24309 4.27926 0.24309C69.07916999999999 45.552 70.60341 45.14684999999999 71.69183999999998 44.6541z"></path><path d="M70.518 55.626c-0.24528 0-0.49275-0.08322-0.69642-0.24966C65.62554 51.91394999999999 60.976169999999996 50.37 54.75 50.37s-10.87554 1.54395-15.071579999999999 5.00634c-0.46865999999999997 0.38543999999999995-1.15632 0.31754999999999994-1.5417599999999998-0.14673-0.38543999999999995-0.46647-0.31973999999999997-1.15632 0.14673-1.5417599999999998C42.838589999999996 49.929809999999996 48.070499999999996 48.18 54.75 48.18s11.91141 1.74981 16.46661 5.50566c0.46647 0.38543999999999995 0.5321699999999999 1.0752899999999999 0.14673 1.5417599999999998C71.14653 55.49022 70.83336 55.626 70.518 55.626z"></path><path d="M81.03 40.734c0-16.206 17.52-12.264 17.52-12.264S95.04599999999999 40.734 81.03 40.734z"></path><path d="M79.278 38.982c0-16.206 10.511999999999999-17.52 10.511999999999999-17.52S93.294 38.982 79.278 38.982z"></path><path id="XMLID_377_" d="M54.75 93.075c-8.00883 0-15.4833-4.22889-19.64649-11.07702C25.4697 81.08037 15.33 74.98340999999999 15.33 63.51c0-6.61161 4.06245-13.976579999999998 9.938220000000001-18.11568C26.14641 29.71611 38.99295 17.51562 54.75 17.51562s28.60359 12.200489999999999 29.481779999999997 27.8787C90.10755 49.53341999999999 94.17 56.89839 94.17 63.51c0 11.47341-10.1397 17.57037-19.773509999999998 18.48798C70.2333 88.84611000000001 62.758829999999996 93.075 54.75 93.075zM54.75 19.70562c-14.7606 0-26.7618 11.5632-27.320249999999998 26.32599-0.01314 0.35259-0.19490999999999997 0.6767099999999999-0.48836999999999997 0.86943C22.259159999999998 50.01303 17.52 56.71881 17.52 63.51c0 10.30395 9.495840000000001 15.700109999999999 18.31935 16.352729999999998 0.36354000000000003 0.02628 0.6876599999999999 0.22995 0.86724 0.5475 3.7076700000000002 6.460500000000001 10.6215 10.474770000000001 18.04122 10.474770000000001s14.333549999999999-4.01427 18.04122-10.474770000000001c0.18177000000000001-0.31536 0.5058900000000001-0.51903 0.86724-0.5475C82.48416 79.21010999999999 91.98 73.81394999999999 91.98 63.51c0-6.791189999999999-4.73916-13.496970000000001-9.42138-16.60677-0.29346-0.19490999999999997-0.47523-0.51903-0.48836999999999997-0.86943C81.5118 31.26882 69.5106 19.70562 54.75 19.70562z"></path></g><g id="Regular-S" transform="matrix(1,0,0,1,1392.564970703125,603.4905078125)"><path d="M81.86207 64.17508c1.09548 1.64859 0.6927300000000001 3.9451600000000004-1.0024000000000002 4.96725-2.87474 1.73272-8.370040000000001 3.46544-13.38204 4.23514-4.6182 0.70884-10.038319999999999 1.04715-14.672629999999998 0.9075300000000001-1.4821199999999999-0.044750000000000005-2.6492-1.28164-2.6044500000000004-2.7655499999999997 0.042960000000000005-1.41947 1.17961-2.5507500000000003 2.5776-2.6044500000000004 4.2888399999999995-0.16289 9.17017-0.78223 13.326550000000001-1.69871 3.9236800000000005-0.86636 8.325289999999999-2.72438 10.79191-4.0454C78.57384 62.27589 80.76659000000001 62.526489999999995 81.86207 64.17508z"></path><path d="M84.13 37.59l3.47797 10.74c0 0-12.42797 3.58-30.327970000000004 3.58s-30.327970000000004-3.58-30.327970000000004-3.58L30.43 37.59c0 0 5.47203-7.2244399999999995 14.45783-5.37C49.225 33.115 52.805 37.59 57.28 37.59s8.055-4.475 12.39217-5.37C78.65796999999999 30.36556 84.13 37.59 84.13 37.59zM49.12118 45.396190000000004c1.51434-0.19869 2.12473-2.05492 1.0041900000000001-3.09312C48.99767000000001 41.25771 47.26674 40.275 44.75 40.275c-1.8795000000000002 0-3.5621 0.5835400000000001-4.82405 1.20825-1.3604 0.67125-1.33713 2.62056 0.044750000000000005 3.24527C41.08408000000001 45.22972 42.639590000000005 45.645 44.75 45.645 46.61339 45.645 48.045390000000005 45.537600000000005 49.12118 45.396190000000004zM74.58930000000001 44.726729999999996c1.38188-0.62471 1.4051500000000001-2.5722300000000002 0.044750000000000005-3.24527C73.3721 40.858540000000005 71.6895 40.275 69.81 40.275c-2.51674 0-4.24767 0.9827100000000001-5.37716 2.02807-1.12054 1.03641-0.5083599999999999 2.89443 1.0041900000000001 3.09312C66.51461 45.537600000000005 67.94661 45.645 69.81 45.645 71.92041 45.645 73.47592 45.22972 74.58930000000001 44.726729999999996z"></path><path d="M73.38821 57.28c-0.8019200000000001 0-1.60921-0.2685-2.27509-0.81803C67.29683999999999 53.313359999999996 63.031270000000006 51.910000000000004 57.28 51.910000000000004s-10.01684 1.4033600000000002-13.83312 4.551970000000001c-1.5215 1.25658-3.7804800000000003 1.04178-5.03885-0.48330000000000006s-1.04178-3.78227 0.48509-5.04064C44.008939999999996 46.71721 49.85329 44.75 57.28 44.75s13.27106 1.96721 18.38688 6.1880299999999995c1.52687 1.25837 1.74346 3.51556 0.48509 5.04064C75.44313 56.83608 74.41925 57.28 73.38821 57.28z"></path><path d="M85.92 39.38c0-16.5575 17.9-12.530000000000001 17.9-12.530000000000001S100.24000000000001 39.38 85.92 39.38z"></path><path d="M84.13 37.59c0-16.5575 10.74-17.9 10.74-17.9S98.45 37.59 84.13 37.59z"></path><path id="XMLID_374_" d="M57.28 98.45c-8.9858 0-17.371950000000002-4.53944-22.33025-11.966149999999999-13.67202-1.38188-22.39469-9.46731-22.39469-20.97522 0-7.988770000000001 4.16712-15.9489 10.97986-21.15243C25.521819999999998 27.379839999999998 40.02082 14.32 57.28 14.32s31.758180000000003 13.059840000000001 33.74508 30.0362c6.81274 5.20353 10.97986 13.16366 10.97986 21.15243 0 11.50791-8.72267 19.59334-22.39469 20.97522C74.65195 93.91056 66.26580000000001 98.45 57.28 98.45zM57.28 21.48c-14.07656 0-25.8297 11.01029-26.755129999999998 25.06537-0.07339000000000001 1.10622-0.65514 2.11578-1.5752 2.73512-5.60986 3.77511-9.23282 10.14393-9.23282 16.228140000000003 0 9.60156 9.048449999999999 13.51271 17.516939999999998 13.97274 1.2172 0.06623 2.31805 0.7464299999999999 2.91949 1.8079C43.654520000000005 87.45761 50.21666 91.29 57.28 91.29s13.62548-3.83239 17.12672-10.000729999999999c0.6014400000000001-1.06147 1.7022899999999999-1.74167 2.91949-1.8079 8.46849-0.45824000000000004 17.516939999999998-4.371180000000001 17.516939999999998-13.97274 0-6.084210000000001-3.62296-12.45482-9.23282-16.228140000000003-0.92006-0.61934-1.5018099999999999-1.6289-1.5752-2.73512C83.1097 32.49029 71.35656 21.48 57.28 21.48z"></path></g><g id="Black-S" transform="matrix(1,0,0,1,2870.4000244140625,597.7705078125)"><path d="M87.77825 70.95025c1.35625 2.002 0.88025 4.80025-1.17075 6.08125-3.3845 2.11225-9.959249999999999 4.039-15.013250000000001 4.91925-4.88425 0.8505-9.7895 1.12525-14.719249999999999 0.9555-1.8130000000000002-0.063-3.2305-1.582-3.1675-3.395 0.059500000000000004-1.722 1.4349999999999998-3.09225 3.12725-3.1675 4.43625-0.19775 8.953-0.8155 13.23175-1.8970000000000002 4.62875-1.17075 8.4525-2.8699999999999997 11.63225-4.6690000000000005C83.80225 68.58775 86.42375 68.94825 87.77825 70.95025z"></path><path d="M91.875 42.35l3.73975 11.549999999999999C95.61475 53.9 82.25 57.75 63 57.75s-32.61475-3.8500000000000005-32.61475-3.8500000000000005l3.73975-11.549999999999999c0 0 5.8835-7.7700000000000005 15.54875-5.7749999999999995 4.6655 0.9625000000000001 8.51375 5.7749999999999995 13.32625 5.7749999999999995s8.6625-4.8125 13.32625-5.7749999999999995C85.9915 34.580000000000005 91.875 42.35 91.875 42.35zM54.30075 51.00725c1.6275000000000002-0.2135 2.2855-2.21025 1.07975-3.32675C54.16775 46.557 52.305749999999996 45.5 49.5985 45.5c-2.02125 0-3.83075 0.62825-5.18875 1.2985-1.4629999999999999 0.72275-1.4385 2.8175000000000003 0.049 3.4895 1.197 0.54075 2.87175 0.9869999999999999 5.139749999999999 0.9869999999999999C51.604 51.275 53.144 51.1595 54.30075 51.00725zM81.557 50.288000000000004c1.4875-0.672 1.512-2.76675 0.049-3.4895C80.248 46.12825 78.43674999999999 45.5 76.41725 45.5c-2.7072499999999997 0-4.56925 1.057-5.782 2.1822500000000002-1.204 1.11475-0.54775 3.11325 1.07975 3.32675 1.1567500000000002 0.1505 2.6985 0.26775 4.702249999999999 0.26775C78.68525 51.275 80.36 50.82875 81.557 50.288000000000004z"></path><path d="M80.32325 65.27499999999999c-0.9817500000000001 0-1.967-0.32725-2.7825-0.99925C73.5385 60.97175 69.05325 59.5 63 59.5s-10.5385 1.47175-14.5425 4.77575c-1.86025 1.53475-4.6217500000000005 1.27575-6.16-0.5915-1.5365-1.86375-1.274-4.6217500000000005 0.5915-6.16C48.4925 52.9025 54.8835 50.75 63 50.75s14.507499999999999 2.1525 20.10925 6.77425c1.86375 1.5382500000000001 2.128 4.296250000000001 0.5915 6.16C82.83625 64.7325 81.58324999999999 65.27499999999999 80.32325 65.27499999999999z"></path><path d="M94.5 44.975C94.5 27.16875 113.75 31.5 113.75 31.5S109.89999999999999 44.975 94.5 44.975z"></path><path d="M91.7 42c0-17.806250000000002 11.549999999999999-19.25 11.549999999999999-19.25S107.10000000000001 42 91.7 42z"></path><path id="XMLID_371_" d="M63 110.25c-10.006499999999999 0-19.36725-4.88425-25.14225-12.93425-14.381499999999999-2.12625-24.862250000000003-13.020000000000001-24.862250000000003-26.41625 0-8.92675 4.47825-17.80275 11.84925-23.78775C27.52225 28.325499999999998 43.74825 14 63 14s35.47775 14.3255 38.15525 33.11175c7.37275 5.984999999999999 11.84925 14.86275 11.84925 23.78775 0 13.3945-10.48075 24.288249999999998-24.862250000000003 26.41625C82.36725 105.36575 73.0065 110.25 63 110.25zM63 26.25c-13.804 0-25.32775 10.79575-26.23425 24.577-0.12424999999999999 1.8935000000000002-1.11825 3.62075-2.6915 4.6795-5.362 3.6085-8.82875 9.65125-8.82875 15.392999999999999 0 8.93725 8.30025 14.064750000000002 16.50075 14.507499999999999 2.0825 0.11375 3.96725 1.27925 4.9945 3.09575C50.064 94.36 56.294 98 63 98s12.936-3.64 16.25925-9.49725c1.029-1.8165 2.912-2.9819999999999998 4.9945-3.09575 8.2005-0.44275 16.50075-5.57025 16.50075-14.507499999999999 0-5.741750000000001-3.465-11.7845-8.82875-15.392999999999999-1.57325-1.0587499999999999-2.56725-2.786-2.6915-4.6795C88.32775 37.04575 76.804 26.25 63 26.25z"></path></g></g></svg>