<?xml version="1.0" encoding="utf-8"?>
<!-- Generator: Adobe Illustrator 26.5.0, SVG Export Plug-In . SVG Version: 6.00 Build 0)  -->
<svg version="1.1" id="图层_1" xmlns="http://www.w3.org/2000/svg" xmlns:xlink="http://www.w3.org/1999/xlink" x="0px" y="0px"
	 viewBox="0 0 3300 2200" style="enable-background:new 0 0 3300 2200;" xml:space="preserve">
<style type="text/css">
	.st0{fill:#FFFFFF;}
	.st1{fill:none;stroke:#000000;stroke-width:0.5;}
	.st2{font-family:'Arial-BoldMT';}
	.st3{font-size:12px;}
	.st4{font-family:'ArialMT';}
	.st5{fill:none;stroke:#00AEEF;stroke-width:0.5;}
	.st6{fill:#27AAE1;}
	.st7{fill:none;stroke:#27AAE1;stroke-width:0.5;}
	.st8{opacity:0.99;}
	.st9{fill:none;}
	.st10{fill:#FEA4C1;}
</style>
<g id="Notes">
	<rect id="artboard" x="37.9" y="17.7" class="st0" width="3300" height="2200"/>
	<line class="st1" x1="300.9" y1="309.7" x2="3073.9" y2="309.7"/>
	<text transform="matrix(1 0 0 1 300.9303 339.7229)" class="st2 st3">Weight/Scale Variations</text>
	<text transform="matrix(1 0 0 1 573.9664 339.7229)" class="st4 st3">Ultralight</text>
	<text transform="matrix(1 0 0 1 882.6804 339.7229)" class="st4 st3">Thin</text>
	<text transform="matrix(1 0 0 1 1178.0496 339.7229)" class="st4 st3">Light</text>
	<text transform="matrix(1 0 0 1 1466.7585 339.7229)" class="st4 st3">Regular</text>
	<text transform="matrix(1 0 0 1 1763.1504 339.7229)" class="st4 st3">Medium</text>
	<text transform="matrix(1 0 0 1 2056.1865 339.7229)" class="st4 st3">Semibold</text>
	<text transform="matrix(1 0 0 1 2365.9014 339.7229)" class="st4 st3">Bold</text>
	<text transform="matrix(1 0 0 1 2657.6133 339.7229)" class="st4 st3">Heavy</text>
	<text transform="matrix(1 0 0 1 2956.6582 339.7229)" class="st4 st3">Black</text>
	<line class="st1" x1="300.9" y1="1920.7" x2="3073.9" y2="1920.7"/>
	<g transform="matrix(1 0 0 1 263 1933)">
		<path d="M47.1,18.5c4.3,0,7.9-3.6,7.9-7.9s-3.6-7.9-7.9-7.9s-7.9,3.6-7.9,7.9C39.3,15,42.9,18.5,47.1,18.5z M47.1,17
			c-3.5,0-6.4-2.8-6.4-6.4s2.8-6.4,6.4-6.4c3.6,0,6.4,2.8,6.4,6.4C53.6,14.2,50.7,17,47.1,17z M44.3,11.4h2.1v2.1
			c0,0.4,0.3,0.7,0.7,0.7s0.7-0.3,0.7-0.7v-2.1h2.1c0.4,0,0.7-0.3,0.7-0.7S50.3,10,49.9,10h-2V7.9c0-0.4-0.3-0.8-0.7-0.8
			s-0.7,0.3-0.7,0.8V10h-2.2c-0.5-0.1-0.8,0.2-0.8,0.7C43.5,11.1,43.8,11.4,44.3,11.4z"/>
	</g>
	<g transform="matrix(1 0 0 1 281.506 1933)">
		<path d="M49.6,20.6c5.4,0,10-4.5,10-10c0-5.4-4.5-10-10-10c-5.4,0-10,4.5-10,10S44.2,20.6,49.6,20.6z M49.6,18.9
			c-4.6,0-8.3-3.7-8.3-8.3s3.7-8.3,8.3-8.3s8.3,3.7,8.3,8.3C57.9,15.3,54.2,18.9,49.6,18.9z M45.9,11.5h2.9v2.9
			c0,0.5,0.3,0.8,0.8,0.8s0.8-0.3,0.8-0.8v-2.9h2.9c0.5,0,0.8-0.3,0.8-0.8s-0.3-0.8-0.8-0.8h-2.9V7c0-0.5-0.3-0.8-0.8-0.8
			S48.8,6.5,48.8,7v2.9h-2.9c-0.5-0.1-0.9,0.3-0.9,0.8C45,11.1,45.4,11.5,45.9,11.5z"/>
	</g>
	<g transform="matrix(1 0 0 1 304.924 1933)">
		<path d="M52.9,23.4c7,0,12.7-5.8,12.7-12.7c0-7-5.8-12.7-12.7-12.7c-7-0.1-12.7,5.7-12.7,12.6C40.2,17.6,45.9,23.4,52.9,23.4z
			 M52.9,21.5c-6.1,0-10.9-4.8-10.9-10.9c0-6,4.8-10.9,10.9-10.9c6,0,10.9,4.9,10.9,10.9C63.8,16.7,58.9,21.5,52.9,21.5z M48,11.6h4
			v4c0,0.5,0.4,0.9,0.9,0.9s0.9-0.4,0.9-0.9v-4h4c0.5,0,0.9-0.4,0.9-0.9s-0.4-0.9-0.9-0.9h-4v-4c0-0.6-0.4-0.9-0.9-0.9
			S52,5.3,52,5.8v4h-4c-0.6,0-1,0.3-1,0.9C47,11.2,47.4,11.6,48,11.6z"/>
	</g>
	<text transform="matrix(1 0 0 1 300.9303 1970.7229)" class="st2 st3">Design Variations</text>
	<text transform="matrix(1 0 0 1 300.9303 1988.7229)" class="st4 st3">Symbols are supported in up to nine weights and three scales.</text>
	<text transform="matrix(1 0 0 1 300.9303 2006.7229)" class="st4 st3">For optimal layout with text and other symbols, vertically align</text>
	<text transform="matrix(1 0 0 1 300.9303 2024.7229)" class="st4 st3">symbols with the adjacent text.</text>
	<line class="st5" x1="813.9" y1="1936.7" x2="813.9" y2="1950.7"/>
	<g transform="matrix(1 0 0 1 776 1933)">
		<path d="M41.2,17.8c0.5,0,0.8-0.2,1-0.7l1.3-3.5h5.8l1.3,3.5c0.2,0.5,0.4,0.7,0.9,0.7s0.8-0.3,0.8-0.8c0-0.2,0-0.3-0.1-0.5
			L47.6,4.3c-0.3-0.6-0.7-0.9-1.3-0.9s-1,0.3-1.2,0.9l-4.6,12.2c-0.1,0.2-0.1,0.4-0.1,0.5C40.4,17.5,40.7,17.8,41.2,17.8z
			 M43.9,12.2l2.4-6.6l0,0l2.4,6.6C48.7,12.2,43.9,12.2,43.9,12.2z"/>
	</g>
	<line class="st5" x1="830.7" y1="1936.7" x2="830.7" y2="1950.7"/>
	<text transform="matrix(1 0 0 1 813.9302 1970.7229)" class="st2 st3">Margins</text>
	<text transform="matrix(1 0 0 1 813.9302 1988.7229)" class="st4 st3">Leading and trailing margins on the left and right side of each symbol</text>
	<text transform="matrix(1 0 0 1 813.9302 2006.7229)" class="st4 st3">can be adjusted by modifying the x-location of the margin guidelines.</text>
	<text transform="matrix(1 0 0 1 813.9302 2024.7229)" class="st4 st3">Modifications are automatically applied proportionally to all</text>
	<text transform="matrix(1 0 0 1 813.9302 2042.7229)" class="st4 st3">scales and weights.</text>
	<g transform="matrix(1 0 0 1 1289 1933)">
		<path d="M40.7,19.6l1.7,1.7c0.9,0.9,1.8,0.8,2.8-0.2L55.4,9.8c0.3,0.1,0.5,0.1,0.8,0l1.1-0.1l0.7,0.7V11c0,0.5,0.1,0.9,0.6,1.4
			l0.8,0.7c0.5,0.5,1.1,0.5,1.6,0l2.9-2.9c0.5-0.5,0.4-1.1,0-1.5l-1-0.9c-0.5-0.5-0.8-0.6-1.3-0.6H61l-0.6-0.6l0.2-1.1
			c0.1-0.6,0-1-0.6-1.6l-2.2-2.2C54.5-1.6,50-1.5,47.1,1.3c-0.4,0.4-0.4,1-0.2,1.4s0.7,0.6,1.3,0.4c1.5-0.3,3-0.4,4.4,0.5L52,5.1
			c-0.2,0.5-0.2,0.9-0.1,1.2l-11,10.5C40,17.7,39.9,18.7,40.7,19.6z M48.7,1.7c2.4-1.8,5.7-1.5,7.9,0.8L59,4.9
			c0.2,0.2,0.3,0.4,0.2,0.8l-0.3,1.5l1.5,1.5l1-0.1c0.3,0,0.3,0,0.5,0.2l0.6,0.6l-2.4,2.4l-0.6-0.6c-0.2-0.2-0.2-0.3-0.2-0.5l0.1-1
			l-1.5-1.5l-1.5,0.3c-0.3,0.1-0.5,0-0.7-0.2l-2-2c-0.3-0.2-0.3-0.4-0.1-0.8l0.9-2.1c-1.6-1.5-3.6-2.1-5.6-1.5
			C48.6,2,48.5,1.9,48.7,1.7z M43.2,20L42,18.8c-0.5-0.4-0.4-0.8,0-1.1L52.9,7.5L54.4,9l-10,11C44,20.4,43.6,20.5,43.2,20z"/>
	</g>
	<text transform="matrix(1 0 0 1 1326.9303 1970.7229)" class="st2 st3">Exporting</text>
	<text transform="matrix(1 0 0 1 1326.9303 1988.7229)" class="st4 st3">Symbols should be outlined when exporting to ensure the</text>
	<text transform="matrix(1 0 0 1 1326.9303 2006.7229)" class="st4 st3">design is preserved when submitting to Xcode.</text>
	<text id="template-version" transform="matrix(1 0 0 1 2996.7798 1950.7229)" class="st4 st3">Template v.2.0</text>
	<text transform="matrix(1 0 0 1 2916.5063 1968.7229)" class="st4 st3">Requires Xcode 12 or greater</text>
	<text transform="matrix(1 0 0 1 2949.8638 1986.7229)" class="st4 st3">Generated from square</text>
	<text transform="matrix(1 0 0 1 2959.854 2004.7229)" class="st4 st3">Typeset at 100 points</text>
	<text transform="matrix(1 0 0 1 300.9303 743.7229)" class="st4 st3">Small</text>
	<text transform="matrix(1 0 0 1 300.9303 1173.7229)" class="st4 st3">Medium</text>
	<text transform="matrix(1 0 0 1 300.9303 1603.7229)" class="st4 st3">Large</text>
</g>
<g id="Guides">
	<g id="H-reference" transform="matrix(1 0 0 1 339 696)">
		<path class="st6" d="M1,0h2.7L13-24.5h32.8L55.1,0h2.6L30.6-70.5h-2.5L1,0z M29.3-67.1L29.3-67.1l15.5,40.4h-31L29.3-67.1z"/>
	</g>
	<line id="Baseline-S" class="st7" x1="263" y1="696" x2="3036" y2="696"/>
	<line id="Capline-S" class="st7" x1="263" y1="625.5" x2="3036" y2="625.5"/>
	<g id="H-reference_1_" transform="matrix(1 0 0 1 339 1126)">
		<path class="st6" d="M1,0h2.7L13-24.5h32.8L55.1,0h2.6L30.6-70.5h-2.5L1,0z M29.3-67.1L29.3-67.1l15.5,40.4h-31L29.3-67.1z"/>
	</g>
	<line id="Baseline-M" class="st7" x1="263" y1="1126" x2="3036" y2="1126"/>
	<line id="Capline-M" class="st7" x1="263" y1="1055.5" x2="3036" y2="1055.5"/>
	<g id="H-reference_2_" transform="matrix(1 0 0 1 339 1556)">
		<path class="st6" d="M1,0h2.7L13-24.5h32.8L55.1,0h2.6L30.6-70.5h-2.5L1,0z M29.3-67.1L29.3-67.1l15.5,40.4h-31L29.3-67.1z"/>
	</g>
	<line id="Baseline-L" class="st7" x1="263" y1="1556" x2="3036" y2="1556"/>
	<line id="Capline-L" class="st7" x1="263" y1="1485.5" x2="3036" y2="1485.5"/>
	<line id="left-margin" class="st5" x1="1392.4" y1="1030.8" x2="1392.4" y2="1150.1"/>
	<line id="right-margin" class="st5" x1="1507.2" y1="1030.8" x2="1507.2" y2="1150.1"/>
</g>
<g id="Symbols">
	<g id="Regular-M" transform="matrix(1 0 0 1 1392.45 1126)" class="st8">
		<g id="Template">
			<path id="Alert" class="st9" d="M95.8-67.2v-6.5h-6.5v-5.1h-64v5.1h-6.5v6.5h-5.1v64h5.1v6.4h6.5v5.2h63.9V3.1h6.5v-6.4h5.1v-64
				h-5.1L95.8-67.2C95.7-67.2,95.8-67.2,95.8-67.2z M95.1-73v5.8h-5.8V-73C89.4-73,95.1-73,95.1-73z M95.1-15
				c-1.6,2.9-3.5,5.8-5.8,8.3v-57c2.2,2.5,4.2,5.2,5.8,8.3V-15z M95.8-54c2.7,5.6,4.3,12,4.3,18.8S98.5-22,95.8-16.4V-54z M36.8,2.3
				c-2.9-1.6-5.5-3.5-7.8-5.6h56.8c-2.5,2.2-5.1,4.1-7.8,5.6H36.8z M76.6,3c-5.8,2.9-12.3,4.5-19.2,4.5S43.9,5.9,38.1,3H76.6z
				 M19.6-55.5c1.6-2.9,3.5-5.8,5.8-8.3v56.9c-2.2-2.5-4.2-5.2-5.8-8.1C19.6-15,19.6-55.5,19.6-55.5z M18.9-16.4
				c-2.7-5.6-4.3-12-4.3-18.8s1.6-13.2,4.3-18.8V-16.4z M77.6-73c2.9,1.6,5.8,3.5,8.2,5.8h-57c2.6-2.2,5.4-4.2,8.2-5.8H77.6z
				 M38.5-73.7c5.6-2.8,12-4.3,18.8-4.3s13.2,1.6,18.8,4.3H38.5z M86.5-4H28.1c-0.7-0.6-1.3-1.3-2-2v-58.5c0.6-0.7,1.3-1.3,2-2h58.4
				c0.7,0.6,1.3,1.3,2,2V-6C87.8-5.3,87.4-4.7,86.5-4z M87.6-66.5h1v1C88.4-65.8,87.8-66.2,87.6-66.5z M86.8-67.2
				c-2.3-2.2-5.1-4.2-7.8-5.8h9.5v5.8H86.8z M27.8-67.2h-1.7V-73h9.5C32.9-71.3,30.1-69.4,27.8-67.2z M27.1-66.5
				c-0.3,0.3-0.6,0.6-1,1v-1H27.1z M25.4-64.8c-2.2,2.3-4.2,5.1-5.8,7.8v-9.6h5.8C25.4-66.6,25.4-64.8,25.4-64.8z M25.4-5.7V-4h-5.8
				v-9.6C21.4-10.8,23.2-8,25.4-5.7z M26.1-5c0.3,0.3,0.6,0.6,1,1h-1V-5z M27.8-3.2c2.3,2.2,4.8,4.1,7.5,5.6H26v-5.6H27.8z
				 M86.8-3.2h1.7v5.6h-9.3C82.1,0.7,84.5-1.2,86.8-3.2z M87.6-4c0.3-0.3,0.6-0.6,1-1v1H87.6z M89.4-5.7c2.2-2.3,4.2-5.1,5.8-7.8V-4
				h-5.8V-5.7z M89.4-64.8v-1.7h5.8v9.6C93.4-59.7,91.5-62.4,89.4-64.8z M88.6-78.1v4.3H77.7c-3.9-2-8.1-3.6-12.6-4.3H88.6z
				 M26.1-78.1h23.4c-4.5,0.9-8.7,2.3-12.6,4.3H26.1C26.1-73.7,26.1-78.1,26.1-78.1z M19.6-73h5.8v5.8h-5.8
				C19.6-67.2,19.6-73,19.6-73z M14.5-66.5h4.3v10.9c-2,3.9-3.6,8.1-4.3,12.6C14.5-43,14.5-66.5,14.5-66.5z M14.5-4v-23.5
				c0.9,4.5,2.3,8.7,4.3,12.6V-4C18.9-4,14.5-4,14.5-4z M19.6,2.3v-5.6h5.8v5.6H19.6z M26.1,7.6V3.1h10.4c3.9,2.2,8.2,3.8,12.9,4.5
				H26.1z M88.6,7.6H65.1c4.6-0.9,9-2.5,12.9-4.5h10.4v4.5H88.6z M95.1,2.3h-5.8v-5.6h5.8V2.3z M100.1-4h-4.3v-10.9
				c2-3.9,3.6-8.1,4.3-12.6V-4z M95.8-55.6v-10.9h4.3V-43C99.4-47.5,97.8-51.7,95.8-55.6z"/>
			<rect id="Specification" x="12.5" y="-80.1" class="st9" width="89.8" height="89.9"/>
		</g>
		<g>
			<path class="st10" d="M89.8-42.6c-0.4-0.4-0.5-0.8-0.4-1.2c0.2-0.7,0.1-1.5,0.1-1.9c0-1.3,0-2.2-0.2-3.2c-1-4.7-3.5-8.2-8.1-9.9
				c-4-1.5-7.9-1-11.7,0.8c-0.5,0.2-0.7,0.3-1.1-0.3c-3.1-5.8-9.5-8.2-15.7-6.8c-4.1,0.9-7.3,3.1-9.5,6.8c-0.2,0.3-0.4,0.6-0.8,0.6
				c-1.5-0.3-3,0-4.4,0.2c-4,0.8-7.4,2.8-9.6,6.3c-2.2,3.4-2.7,7.1-1.4,11c0.2,0.7,0.2,1-0.5,1.4c-1.2,0.7-2.2,1.7-3.2,2.7
				c-2.8,3-3.5,7.6-1.7,11.1c1.6,3.3,4.5,5.1,7.9,6c1.4,0.3,1.5,0.5,1.1,1.9c-0.6,2.2-2,3.7-3.8,4.9c-1.2,0.8-1.3,1.6-0.1,2.5
				c1.8,1.3,3.9,1.9,6,2.1c3.7,0.3,7.3-0.2,10.7-1.9c1.1-0.6,1.7-0.6,2.6,0.4c3.1,3.1,7,4.2,11.3,3.9c4.1-0.2,7.7-1.8,10.6-4.7
				c0.4-0.4,0.7-0.4,1.1-0.2c1.4,0.5,2.8,0.7,4.3,0.7c3.4,0,6.6-1,9.3-3.1c2.5-2,4.3-4.4,4.4-7.8c0-0.7,0.4-1,0.9-1.3
				c3.9-2.7,5.6-6.5,5.6-11.1C93.9-36.6,92.4-39.9,89.8-42.6z M86.6-23.4c-0.9,0.6-1.4,1.3-1.4,2.4c0.1,2.8-1.4,4.8-3.5,6.4
				c-3.3,2.5-7.1,3.3-11.2,2.3c-0.3-0.1-0.6-0.2-0.9-0.3c-1.3-0.6-1.5-0.6-2.4,0.5c-3.2,3.5-7.2,4.9-11.9,4.6
				c-3.5-0.3-6.6-1.7-8.6-4.8c-0.6-0.9-1.2-1-2.1-0.4c-2,1.5-4.4,2.2-6.8,2.6c-2.5,0.4-5,0.4-7.4-0.5c-0.3-0.1-0.6-0.3-1-0.4
				c1.3-1.2,2.5-2.5,3.2-4.1c0.7-1.6,0.8-3.2,0.3-4.8c-0.2-0.7-0.8-1.1-1.6-1.2c-3.5-0.5-6.8-2.5-7.8-6.1c-0.7-2.5-0.1-4.8,1.4-6.9
				c1.1-1.6,2.7-2.7,4.4-3.6c0.9-0.5,1.1-1,0.7-1.9c-3.2-6.2,0.4-12.7,6.3-15c2.3-0.9,4.7-1.2,7.1-0.8c0.8,0.1,1.3-0.4,1.6-1
				c1.6-3.2,4.2-5.2,7.6-6.2c5-1.5,10.8,0.4,13.5,4.5c0.5,0.7,0.8,1.4,1.1,2.2c0.4,1,1.3,1.3,2.2,0.7c2.3-1.5,4.9-2.2,7.6-2.1
				c5.5,0.2,9.6,3.9,10.3,9.3c0.2,1.6,0.1,3.1-0.2,4.7c-0.2,0.8,0.1,1.4,0.7,1.9c2.6,2.5,3.9,5.5,3.8,9.1
				C91.5-28.5,89.8-25.5,86.6-23.4z"/>
			<path class="st10" d="M66.1-45c-2.9-0.6-5.7,0.1-8.2,1.6c-0.5,0.3-0.9,0.4-1.5,0c-2.4-1.5-5.1-2.2-7.9-1.7c-4,0.7-6.3,4-6.3,8.6
				c-0.1,0.9,0.1,1.8,0.3,2.8c1.2,4.6,3.9,8.2,7.9,10.7c2.7,1.7,5.6,2.4,8.8,1.9c2.5-0.5,4.8-1.6,6.7-3.3c4.1-3.5,6.5-7.8,6.2-13.4
				C71.9-41.3,69.5-44.2,66.1-45z"/>
		</g>
	</g>
</g>
</svg>
