<?xml version="1.0" encoding="iso-8859-1"?>
<!-- Generator: Adobe Illustrator 24.1.2, SVG Export Plug-In . SVG Version: 6.00 Build 0)  -->
<svg version="1.1" baseProfile="basic" id="Layer_1"
	 xmlns="http://www.w3.org/2000/svg" xmlns:xlink="http://www.w3.org/1999/xlink" x="0px" y="0px" viewBox="0 0 64 64"
	 xml:space="preserve">
<path d="M48,22c0-9.25,10-7,10-7S56,22,48,22z"/>
<path d="M47,21c0-9.25,6-10,6-10S55,21,47,21z"/>
<path d="M52.892,26.668c2.569,2.776,4.094,6.34,4.094,9.929c0,6.429-4.873,10.946-12.511,11.718C41.705,52.464,37.02,55,32,55
	s-9.705-2.536-12.475-6.685c-7.638-0.772-12.511-5.289-12.511-11.718c0-3.59,1.525-7.154,4.094-9.929
	c1.01,0.616,4.65,2.634,10.755,3.859c-0.125,0.145-0.218,0.31-0.278,0.484c-0.166,0.477-0.087,1.025,0.258,1.444
	c0.527,0.639,1.472,0.73,2.111,0.203C26.182,30.819,28.663,30,32,30s5.818,0.819,8.046,2.657C40.325,32.888,40.663,33,40.999,33
	c0.433,0,0.861-0.186,1.158-0.545c0.359-0.435,0.43-1.01,0.237-1.5c-0.06-0.153-0.146-0.297-0.256-0.426
	C48.243,29.303,51.882,27.284,52.892,26.668z M45.012,39.432c0.834-0.489,1.035-1.615,0.506-2.424
	c-0.53-0.809-1.623-0.967-2.424-0.506c-1.396,0.803-4.157,1.855-6.423,2.334c-2.34,0.494-4.775,0.775-7.183,0.852
	c-0.689,0.024-1.248,0.58-1.266,1.278c-0.019,0.725,0.554,1.328,1.278,1.347c2.577,0.067,5.145-0.06,7.709-0.462
	C39.937,41.423,43.082,40.565,45.012,39.432z"/>
<path d="M32,27c-2.342,0-4.385,0.371-6.233,1.12c-6.754-0.835-10.982-2.836-12.558-3.704c0.193-1.412,0.546-2.769,1.031-4.062
	c1.182-0.926,3.749-2.524,7.418-2.524c0.662,0,1.361,0.052,2.092,0.17c3.106,0.5,5.045,3,8.25,3s5.144-2.5,8.25-3
	c0.732-0.118,1.43-0.17,2.092-0.17c3.669,0,6.236,1.598,7.418,2.524c0.485,1.293,0.838,2.651,1.031,4.062
	c-1.577,0.868-5.804,2.868-12.558,3.704C36.385,27.371,34.342,27,32,27z M35.996,23.633c-0.626,0.579-0.284,1.617,0.561,1.728
	C37.159,25.44,37.959,25.5,39,25.5c1.179,0,2.048-0.232,2.67-0.513c0.772-0.349,0.785-1.437,0.025-1.813
	C40.99,22.826,40.05,22.5,39,22.5C37.594,22.5,36.627,23.049,35.996,23.633z M22.33,24.987C22.952,25.268,23.821,25.5,25,25.5
	c1.041,0,1.841-0.06,2.442-0.139c0.846-0.111,1.187-1.148,0.561-1.728C27.373,23.049,26.406,22.5,25,22.5
	c-1.05,0-1.99,0.326-2.695,0.675C21.544,23.55,21.557,24.638,22.33,24.987z"/>
<path d="M21.658,14.83c-1.836,0-3.45,0.331-4.833,0.8C20.305,10.995,25.832,8,32,8c6.169,0,11.695,2.995,15.175,7.63
	c-1.383-0.469-2.997-0.8-4.833-0.8c-0.847,0-1.711,0.07-2.569,0.208c-1.913,0.308-3.385,1.11-4.684,1.818
	C33.788,17.565,32.943,18,32,18s-1.788-0.435-3.089-1.144c-1.299-0.708-2.771-1.51-4.684-1.818
	C23.369,14.9,22.505,14.83,21.658,14.83z"/>
</svg>