<?xml version="1.0" encoding="UTF-8"?>
<svg id="_图层_1" data-name="图层 1" xmlns="http://www.w3.org/2000/svg" viewBox="0 0 85.82 97.7">
  <defs>
    <style>
      .cls-1 {
        fill: #fff;
      }
    </style>
  </defs>
  <path class="cls-1" d="M0,19.24c6.54,7.78,12.87,14.05,17.64,21.35,5.24,8.03,12.08,9.99,20.71,8.72,1.38-.2,3.12-.57,3.94-1.51,6.83-7.9,13.49-15.96,20.4-24.21-6.66-7.94-13.08-15.61-19.77-23.59-6.89,8.25-13.16,15.76-19.61,23.49,2.27,2.79,4.31,5.38,6.43,7.89,4.54,5.36,4.56,5.35,3.27,8.12-4.92-5.85-9.65-11.59-14.54-17.19-1.11-1.28-2.73-2.79-4.23-2.93-4.24-.4-8.55-.14-14.24-.14Zm44.75,30.12c4.13,0,6.79-.31,9.36,.07,4.89,.71,7.99-1.37,10.9-5.12,5.3-6.82,11.06-13.28,16.61-19.9,1.2-1.43,2.3-2.94,4.06-5.2-4.97,0-8.76-.14-12.53,.07-1.51,.09-3.49,.52-4.38,1.55-7.78,9.02-15.37,18.2-24.01,28.53ZM.44,55.26v25.61H7.04v-11.95c5.8,4.62,10.85,8.65,16.29,12.99v-25.48h-6.59v11.74c-5.68-4.5-10.69-8.46-16.31-12.91Zm55.52,13.12c-5.93-4.72-10.92-8.69-16.33-12.99v25.42h6.58v-11.86c5.7,4.61,10.65,8.62,16.24,13.14v-25.75h-6.49v12.03Zm11.36-12.12v24.57h18.51c-.1-1.98-.17-3.57-.28-5.78h-12.23c2.52-6.4,8.13-1.9,11.13-4.55v-4.79c-2.89,0-5.52,.15-8.12-.09-.83-.08-1.57-1.16-2.36-1.79,.8-.57,1.57-1.57,2.4-1.62,2.93-.2,5.88-.08,8.86-.08v-5.88h-17.92Zm-32.7,24.81v-24.65h-6.31v24.65h6.31Zm-4.67,13.85c2.31,.88,4.65,1.77,6.98,2.66,.17-.38,.35-.76,.52-1.14-1.16-1.07-2.33-2.15-2.45-2.27,.29-3.53,1.42-7.44,.5-8.01-2.74-1.69-6.3-2.07-10.33-3.19,0,4.69-.12,7.81,.06,10.92,.07,1.13,.87,2.22,1.34,3.32,1.11-.75,2.23-1.51,3.38-2.29ZM.09,83.93c0,4.04-.09,7.64,.08,11.24,.03,.7,.93,1.62,1.64,1.94,.47,.21,1.41-.38,2.01-.8,1.39-.98,2.91-1.9,4-3.16,1.37-1.58,3.26-3.48,3.26-5.24,0-1.33-2.42-3.22-4.13-3.83-1.88-.67-4.18-.15-6.86-.15Zm22.7,7.74l.44-1.28c-1.92-.78-3.84-1.56-6.91-2.81,2.1-.26,2.93-.24,3.66-.49,1.09-.37,2.12-.93,3.17-1.41-1.11-.59-2.16-1.54-3.33-1.7-2.03-.28-4.13-.08-6.29-.08v13.02h9.89c.14-.56,.27-1.13,.41-1.69-2.19-.61-4.37-1.23-6.56-1.84l.07-.79c1.82-.31,3.63-.61,5.45-.92Zm41.03-8.23c0,3.53-.21,5.99,.07,8.39,.21,1.84,1.05,3.6,1.61,5.39,.67-1.61,1.32-3.23,2.02-4.83,.12-.26,.45-.43,.83-.78,2.4,1.8,4.83,3.63,7.47,5.61,1.54-10.13,.96-12.74-2.73-12.72-.12,1.69-.24,3.39-.41,5.72-3.02-2.31-5.46-4.17-8.87-6.79Zm-11.89,13.88c2.71,0,5.16,.11,7.59-.07,.76-.06,1.46-.91,2.18-1.4-.8-.58-1.52-1.39-2.41-1.7-1.15-.4-2.44-.39-3.67-.56,.05-.29,.1-.57,.15-.86,1.83-.6,3.65-1.2,5.48-1.8-.14-.5-.28-.99-.43-1.49-1.64-.31-3.28-.61-6.24-1.17,3.34-1.07,5.36-1.72,7.39-2.36l-.41-1.62h-9.64v13.02Zm-2.24-3.34c-3.03-.47-7.79,1.89-7.73-3.42,.06-5.36,4.62-2.96,7.73-2.96-.06-3.91-2.53-4.39-5.08-4.03-3.82,.55-6.55,2.7-6.65,6.85-.1,3.85,2.13,6.21,5.83,7.01,2.74,.59,5.31,.5,5.91-3.45Zm28.99-9.72c.48,3.7,.79,7.09,1.43,10.41,.18,.95,1.33,1.71,2.04,2.55,.57-.81,1.5-1.57,1.64-2.45,.53-3.38,.81-6.79,1.22-10.52h-6.32Z"/>
  <path d="M0,19.24c5.7,0,10-.26,14.24,.14,1.5,.14,3.11,1.65,4.23,2.93,4.89,5.6,9.62,11.34,14.54,17.19,1.28-2.78,1.26-2.76-3.27-8.12-2.12-2.51-4.16-5.1-6.43-7.89,6.45-7.73,12.72-15.24,19.61-23.49,6.69,7.98,13.11,15.64,19.77,23.59-6.91,8.25-13.57,16.31-20.4,24.21-.82,.94-2.56,1.31-3.94,1.51-8.63,1.27-15.47-.69-20.71-8.72C12.87,33.29,6.54,27.02,0,19.24Zm42.96,.08c-1.45,1.75-2.46,2.96-3.64,4.39,1.34,1.42,2.42,2.56,3.77,3.99,1.29-1.57,2.29-2.79,3.39-4.13-1.14-1.38-2.07-2.51-3.52-4.26Z"/>
  <path d="M44.75,49.36c8.64-10.32,16.22-19.51,24.01-28.53,.89-1.03,2.87-1.47,4.38-1.55,3.77-.22,7.56-.07,12.53-.07-1.75,2.26-2.86,3.77-4.06,5.2-5.55,6.63-11.31,13.08-16.61,19.9-2.91,3.75-6.02,5.83-10.9,5.12-2.56-.37-5.23-.07-9.36-.07Z"/>
  <path d="M.44,55.26c5.62,4.44,10.63,8.41,16.31,12.91v-11.74h6.59v25.48c-5.45-4.34-10.49-8.37-16.29-12.99v11.95H.44v-25.61Z"/>
  <path d="M55.96,68.38v-12.03h6.49v25.75c-5.59-4.52-10.54-8.53-16.24-13.14v11.86h-6.58v-25.42c5.42,4.31,10.4,8.28,16.33,12.99Z"/>
  <path d="M67.31,56.27h17.92v5.88c-2.98,0-5.93-.12-8.86,.08-.83,.06-1.6,1.06-2.4,1.62,.78,.62,1.52,1.71,2.36,1.79,2.6,.23,5.23,.09,8.12,.09v4.79c-3,2.65-8.61-1.84-11.13,4.55h12.23c.11,2.2,.19,3.8,.28,5.78h-18.51v-24.57Z"/>
  <path d="M34.61,81.08h-6.31v-24.65h6.31v24.65Z"/>
  <path d="M29.95,94.93c-1.15,.78-2.27,1.53-3.38,2.29-.47-1.11-1.27-2.19-1.34-3.32-.19-3.1-.06-6.22-.06-10.92,4.04,1.11,7.59,1.49,10.33,3.19,.92,.57-.21,4.48-.5,8.01,.13,.12,1.29,1.19,2.45,2.27-.17,.38-.35,.76-.52,1.14-2.34-.89-4.68-1.78-6.98-2.66Z"/>
  <path d="M.09,83.93c2.68,0,4.98-.52,6.86,.15,1.71,.61,4.13,2.5,4.13,3.83,0,1.76-1.88,3.66-3.26,5.24-1.1,1.26-2.61,2.18-4,3.16-.6,.42-1.54,1.01-2.01,.8-.72-.32-1.61-1.24-1.64-1.94-.16-3.6-.08-7.2-.08-11.24Z"/>
  <path d="M22.79,91.67c-1.82,.31-3.63,.61-5.45,.92l-.07,.79c2.19,.61,4.37,1.23,6.56,1.84-.14,.56-.27,1.13-.41,1.69H13.52v-13.02c2.16,0,4.26-.2,6.29,.08,1.17,.16,2.22,1.11,3.33,1.7-1.05,.48-2.08,1.04-3.17,1.41-.73,.25-1.56,.22-3.66,.49,3.07,1.25,4.99,2.03,6.91,2.81l-.44,1.28Z"/>
  <path d="M63.82,83.44c3.42,2.61,5.85,4.48,8.87,6.79,.17-2.33,.29-4.03,.41-5.72,3.69-.02,4.27,2.6,2.73,12.72-2.65-1.99-5.07-3.81-7.47-5.61-.39,.35-.72,.52-.83,.78-.7,1.6-1.36,3.22-2.02,4.83-.56-1.79-1.4-3.56-1.61-5.39-.28-2.4-.07-4.86-.07-8.39Z"/>
  <path d="M51.93,97.33v-13.02h9.64l.41,1.62c-2.03,.65-4.05,1.3-7.39,2.36,2.95,.55,4.59,.86,6.24,1.17,.14,.5,.28,.99,.43,1.49-1.83,.6-3.65,1.2-5.48,1.8-.05,.29-.1,.57-.15,.86,1.23,.17,2.52,.17,3.67,.56,.89,.31,1.62,1.11,2.41,1.7-.73,.49-1.42,1.34-2.18,1.4-2.43,.18-4.88,.07-7.59,.07Z"/>
  <path d="M49.69,93.99c-.6,3.95-3.16,4.04-5.91,3.45-3.7-.79-5.92-3.16-5.83-7.01,.1-4.15,2.83-6.31,6.65-6.85,2.55-.36,5.02,.12,5.08,4.03-3.1,0-7.67-2.4-7.73,2.96-.06,5.31,4.71,2.96,7.73,3.42Z"/>
  <path d="M78.68,84.27h6.32c-.41,3.72-.69,7.14-1.22,10.52-.14,.88-1.07,1.63-1.64,2.45-.71-.85-1.85-1.61-2.04-2.55-.64-3.32-.95-6.71-1.43-10.41Z"/>
  <path class="cls-1" d="M42.96,19.32c1.45,1.75,2.38,2.88,3.52,4.26-1.1,1.34-2.1,2.56-3.39,4.13-1.35-1.43-2.43-2.58-3.77-3.99,1.18-1.43,2.19-2.64,3.64-4.39Z"/>
</svg>