<?xml version="1.0" encoding="UTF-8"?>
<svg id="_图层_1" data-name="图层 1" xmlns="http://www.w3.org/2000/svg" viewBox="0 0 3300 2200">
  <defs>
    <style>
      .cls-1 {
        fill: #fff;
      }

      .cls-2 {
        letter-spacing: -.07em;
      }

      .cls-3 {
        stroke: #00aeef;
      }

      .cls-3, .cls-4, .cls-5 {
        fill: none;
        stroke-width: .5px;
      }

      .cls-4 {
        stroke: #27aae1;
      }

      .cls-5 {
        stroke: #000;
      }

      .cls-6 {
        font-family: ArialMT, Arial;
      }

      .cls-6, .cls-7 {
        font-size: 13px;
        isolation: isolate;
      }

      .cls-8 {
        fill: #27aae1;
      }

      .cls-9 {
        letter-spacing: -.11em;
      }

      .cls-7 {
        font-family: Arial-BoldMT, Arial;
      }

      .cls-10 {
        letter-spacing: -.02em;
      }

      .cls-11 {
        letter-spacing: -.06em;
      }

      .cls-12 {
        fill-rule: evenodd;
      }
    </style>
  </defs>
  <g id="Notes">
    <rect id="artboard" class="cls-1" width="3300" height="2200"/>
    <line class="cls-5" x1="369.06" y1="142.97" x2="3142.06" y2="142.97"/>
    <text class="cls-7" transform="translate(369.06 172.97)"><tspan class="cls-10" x="0" y="0">W</tspan><tspan x="12.04" y="0">eight/Scale </tspan><tspan class="cls-11" x="84.28" y="0">V</tspan><tspan x="92.24" y="0">ariations</tspan></text>
    <text class="cls-6" transform="translate(640.13 172.97)"><tspan x="0" y="0">Ultralight</tspan></text>
    <text class="cls-6" transform="translate(949.84 172.97)"><tspan x="0" y="0">Thin</tspan></text>
    <text class="cls-6" transform="translate(1245.1 172.97)"><tspan x="0" y="0">Light</tspan></text>
    <text class="cls-6" transform="translate(1533.14 172.97)"><tspan x="0" y="0">Regular</tspan></text>
    <text class="cls-6" transform="translate(1829.51 172.97)"><tspan x="0" y="0">Medium</tspan></text>
    <text class="cls-6" transform="translate(2122.24 172.97)"><tspan x="0" y="0">Semibold</tspan></text>
    <text class="cls-6" transform="translate(2433.03 172.97)"><tspan x="0" y="0">Bold</tspan></text>
    <text class="cls-6" transform="translate(2724.33 172.97)"><tspan x="0" y="0">Heavy</tspan></text>
    <text class="cls-6" transform="translate(3023.57 172.97)"><tspan x="0" y="0">Black</tspan></text>
    <line class="cls-5" x1="369.06" y1="1753.97" x2="3142.06" y2="1753.97"/>
    <path d="M378.31,1784.8c4.36,0,7.89-3.53,7.89-7.88s-3.54-7.88-7.89-7.88-7.88,3.53-7.88,7.88,3.54,7.88,7.88,7.88Zm0-1.48c-3.54,0-6.39-2.86-6.39-6.4s2.85-6.4,6.39-6.4,6.4,2.86,6.4,6.4-2.86,6.4-6.4,6.4Zm-3.59-6.4c0,.43,.3,.72,.75,.72h2.1v2.12c0,.44,.29,.74,.72,.74s.74-.3,.74-.74v-2.12h2.12c.44,0,.74-.29,.74-.72s-.3-.74-.74-.74h-2.12v-2.11c0-.45-.29-.75-.74-.75s-.72,.3-.72,.75v2.11h-2.1c-.45,0-.75,.3-.75,.74Z"/>
    <path d="M399.28,1786.88c5.5,0,9.96-4.46,9.96-9.96s-4.46-9.96-9.96-9.96-9.96,4.46-9.96,9.96,4.46,9.96,9.96,9.96Zm0-1.66c-4.59,0-8.3-3.71-8.3-8.3s3.71-8.3,8.3-8.3,8.3,3.71,8.3,8.3-3.71,8.3-8.3,8.3Zm-4.53-8.3c0,.48,.33,.8,.83,.8h2.87v2.88c0,.49,.33,.83,.81,.83s.83-.33,.83-.83v-2.88h2.88c.49,0,.83-.32,.83-.8s-.34-.83-.83-.83h-2.88v-2.87c0-.5-.34-.84-.83-.84s-.81,.34-.81,.84v2.87h-2.87c-.5,0-.83,.34-.83,.83Z"/>
    <path d="M425.96,1789.63c7.02,0,12.72-5.69,12.72-12.71s-5.7-12.72-12.72-12.72-12.71,5.7-12.71,12.72,5.69,12.71,12.71,12.71Zm0-1.82c-6.03,0-10.9-4.87-10.9-10.9s4.87-10.9,10.9-10.9,10.9,4.87,10.9,10.9-4.87,10.9-10.9,10.9Zm-5.77-10.9c0,.52,.37,.88,.92,.88h3.95v3.96c0,.54,.37,.92,.89,.92s.91-.37,.91-.92v-3.96h3.96c.54,0,.92-.36,.92-.88,0-.55-.37-.92-.92-.92h-3.96v-3.95c0-.55-.37-.93-.91-.93s-.89,.38-.89,.93v3.95h-3.95c-.55,0-.92,.37-.92,.92Z"/>
    <text class="cls-7" transform="translate(369.06 1803.97)"><tspan x="0" y="0">Design </tspan><tspan class="cls-11" x="46.95" y="0">V</tspan><tspan x="54.91" y="0">ariations</tspan></text>
    <text class="cls-6" transform="translate(369.06 1821.97)"><tspan x="0" y="0">Symbols are supported in up to nine weights and three scales.</tspan></text>
    <text class="cls-6" transform="translate(369.06 1839.97)"><tspan x="0" y="0">For optimal layout with text and other symbols, vertically align</tspan></text>
    <text class="cls-6" transform="translate(369.06 1857.97)"><tspan x="0" y="0">symbols with the adjacent text.</tspan></text>
    <line class="cls-3" x1="882.06" y1="1769.97" x2="882.06" y2="1783.97"/>
    <path d="M885.38,1784.12c.52,0,.77-.2,.96-.74l1.26-3.45h5.76l1.26,3.45c.19,.55,.44,.74,.95,.74s.85-.31,.85-.8c0-.17-.03-.32-.11-.53l-4.58-12.2c-.22-.6-.63-.9-1.25-.9s-1.02,.29-1.23,.89l-4.58,12.22c-.08,.21-.11,.36-.11,.53,0,.49,.31,.79,.82,.79Zm2.7-5.67l2.37-6.57h.05l2.37,6.57h-4.79Z"/>
    <line class="cls-3" x1="898.9" y1="1769.97" x2="898.9" y2="1783.97"/>
    <text class="cls-7" transform="translate(882.06 1803.97)"><tspan x="0" y="0">Margins</tspan></text>
    <text class="cls-6" transform="translate(882.06 1821.97)"><tspan x="0" y="0">Leading and trailing margins on the left and right side of each symbol</tspan></text>
    <text class="cls-6" transform="translate(882.06 1839.97)"><tspan x="0" y="0">can be adjusted by modifying the x-location of the margin guidelines.</tspan></text>
    <text class="cls-6" transform="translate(882.06 1857.97)"><tspan x="0" y="0">Modifications are automatically applied proportionally to all</tspan></text>
    <text class="cls-6" transform="translate(882.06 1875.97)"><tspan x="0" y="0">scales and weights.</tspan></text>
    <path d="M1397.91,1785.83l1.7,1.71c.86,.87,1.85,.81,2.77-.21l10.69-11.79-.97-.98-10.62,11.68c-.35,.4-.68,.5-1.15,.03l-1.17-1.16c-.47-.46-.36-.8,.04-1.16l11.47-10.8-.98-.97-11.59,10.89c-.99,.92-1.06,1.89-.21,2.76h0Zm6.42-18.19c-.42,.41-.45,.99-.21,1.38,.23,.36,.69,.6,1.34,.43,1.46-.34,2.99-.4,4.41,.54l-.59,1.46c-.34,.83-.17,1.42,.37,1.96l2.29,2.31c.49,.49,.9,.51,1.46,.41l1.06-.2,.66,.67-.04,.56c-.04,.5,.09,.88,.58,1.36l.76,.74c.48,.48,1.09,.51,1.56,.04l2.91-2.92c.47-.47,.45-1.06-.03-1.54l-.77-.76c-.48-.48-.85-.63-1.33-.6l-.58,.05-.64-.63,.24-1.12c.13-.57-.03-1.01-.62-1.59l-2.2-2.19c-3.34-3.32-7.77-3.24-10.66-.35h0Zm1.49,.37c2.43-1.78,5.72-1.47,7.95,.75l2.43,2.41c.23,.23,.27,.42,.21,.76l-.32,1.48,1.5,1.48,.99-.06c.25,0,.33,0,.53,.21l.58,.58-2.44,2.44-.58-.58c-.2-.2-.22-.27-.21-.54l.07-.98-1.49-1.48-1.52,.25c-.32,.07-.47,.04-.71-.2l-2-2c-.25-.23-.28-.4-.13-.77l.88-2.09c-1.56-1.46-3.59-2.08-5.63-1.48-.16,.04-.21-.09-.09-.2h0Z"/>
    <text class="cls-7" transform="translate(1395.06 1803.97)"><tspan x="0" y="0">Exporting</tspan></text>
    <text class="cls-6" transform="translate(1395.06 1821.97)"><tspan x="0" y="0">Symbols should be outlined when exporting to ensure the</tspan></text>
    <text class="cls-6" transform="translate(1395.06 1839.97)"><tspan x="0" y="0">design is preserved when submitting to Xcode.</tspan></text>
    <text id="template-version" class="cls-6" transform="translate(3058.48 1783.97)"><tspan class="cls-9" x="0" y="0">T</tspan><tspan x="6.5" y="0">emplate </tspan><tspan class="cls-2" x="56.36" y="0">v</tspan><tspan x="61.9" y="0">.5.0</tspan></text>
    <text class="cls-6" transform="translate(2971.52 1801.97)"><tspan x="0" y="0">Requires Xcode 15 or greater</tspan></text>
    <text id="descriptive-name" class="cls-6" transform="translate(2953.48 1819.97)"><tspan x="0" y="0">Generated from emoji9_F</tspan><tspan class="cls-11" x="148.12" y="0">F</tspan><tspan x="155.35" y="0">A5BE</tspan></text>
    <text class="cls-6" transform="translate(3007.64 1837.97)"><tspan class="cls-11" x="0" y="0">T</tspan><tspan x="7.22" y="0">ypeset at 100.0 points</tspan></text>
    <text class="cls-6" transform="translate(369.06 576.97)"><tspan x="0" y="0">Small</tspan></text>
    <text class="cls-6" transform="translate(369.06 1006.97)"><tspan x="0" y="0">Medium</tspan></text>
    <text class="cls-6" transform="translate(369.06 1436.97)"><tspan x="0" y="0">Large</tspan></text>
  </g>
  <g id="Guides">
    <g id="H-reference">
      <path class="cls-8" d="M446.06,546.97h2.64l25.69-67.13h.7v-3.33h-1.91l-27.13,70.46Zm10.69-24.48h35.29l-.75-2.25h-33.79l-.75,2.25Zm43.43,24.48h2.64l-27.13-70.46h-1.21v3.33l25.69,67.13Z"/>
    </g>
    <line id="Baseline-S" class="cls-4" x1="369.06" y1="546.97" x2="3142.06" y2="546.97"/>
    <line id="Capline-S" class="cls-4" x1="369.06" y1="476.51" x2="3142.06" y2="476.51"/>
    <g id="H-reference-2" data-name="H-reference">
      <path class="cls-8" d="M446.06,976.97h2.64l25.69-67.13h.7v-3.33h-1.91l-27.13,70.46Zm10.69-24.48h35.29l-.75-2.25h-33.79l-.75,2.25Zm43.43,24.48h2.64l-27.13-70.46h-1.21v3.33l25.69,67.13Z"/>
    </g>
    <line id="Baseline-M" class="cls-4" x1="369.06" y1="976.97" x2="3142.06" y2="976.97"/>
    <line id="Capline-M" class="cls-4" x1="369.06" y1="906.51" x2="3142.06" y2="906.51"/>
    <g id="H-reference-3" data-name="H-reference">
      <path class="cls-8" d="M446.06,1406.97h2.64l25.69-67.13h.7v-3.33h-1.91l-27.13,70.46Zm10.69-24.48h35.29l-.75-2.25h-33.79l-.75,2.25Zm43.43,24.48h2.64l-27.13-70.46h-1.21v3.33l25.69,67.13Z"/>
    </g>
    <line id="Baseline-L" class="cls-4" x1="369.06" y1="1406.97" x2="3142.06" y2="1406.97"/>
    <line id="Capline-L" class="cls-4" x1="369.06" y1="1336.51" x2="3142.06" y2="1336.51"/>
    <line id="right-margin-Black-S" class="cls-3" x1="3086.87" y1="451.75" x2="3086.87" y2="571.09"/>
    <line id="left-margin-Black-S" class="cls-3" x1="2992.05" y1="451.75" x2="2992.05" y2="571.09"/>
    <line id="right-margin-Regular-S" class="cls-3" x1="1600.02" y1="451.75" x2="1600.02" y2="571.09"/>
    <line id="left-margin-Regular-S" class="cls-3" x1="1511.79" y1="451.75" x2="1511.79" y2="571.09"/>
    <line id="right-margin-Ultralight-S" class="cls-3" x1="707.69" y1="451.75" x2="707.69" y2="571.09"/>
    <line id="left-margin-Ultralight-S" class="cls-3" x1="623.86" y1="451.75" x2="623.86" y2="571.09"/>
  </g>
  <g id="Symbols">
    <path class="cls-12" d="M1554.88,506.92c3.05-5.86,8.99-10.01,12.84-15.13,1.88-2.51,3.51-5.44,5.96-7.34-1.25-3.59-4.8-5.49-6.88-8.26-3.2-4.27-6.58-10.34-11.01-13.3-2.42,3.79-6.1,6.6-8.71,10.09-2.47,3.3-4.87,7.77-8.26,10.09,.32,3.03,7.44,11.33,9.63,12.84-.26,1.45-.4,1.33-.92,2.29h-.92c-3.57-6.83-10.52-11.5-14.68-17.89-1.81-.22-11.73-.84-13.3,0h-.92v.46c4.99,4.63,9.18,10.57,13.3,16.05,2.63,3.5,6.43,6.19,8.71,10.09,4.4,.53,10.74,.53,15.13,0Zm.46-26.14c2.28,.43,2.37,1.48,3.67,2.75-.36,1.99-1.34,2.8-2.75,3.67v.46h-.46c-.72-1.1-1.64-2.04-2.75-2.75,.37-2.33,1.28-2.61,2.29-4.13Zm3.21,24.77c-.3,.79-.09,.45-.46,.92v.46c2.49,.53,10.55,1.51,12.84,0,3.69-.74,5.82-5.63,7.8-8.26,4.65-6.15,12.05-11.27,15.59-18.34-3.28-1.12-9.2-.52-13.3-.46-4.23,4.5-9.16,9.27-12.84,14.22-2.87,3.85-5.65,8.79-9.63,11.47Zm-26.14,8.26c-.04,3.1-.34,7.28,.46,9.63h-.46v.46c-1.77-.63-12.67-9.46-13.76-11.01h-1.38v22.93c2.22,.03,4.88,.07,6.42-.46v-10.09c3.5,1.01,11.7,8.33,14.22,11.01h.92v-22.93c-2.22-.03-4.88-.07-6.42,.46Zm41.73,0c-1.53-.53-4.21-.51-6.42-.46v10.55c-2.87-1.01-12.04-8.56-13.76-11.01h-1.38c-.04,6.83-1.49,17.08,.46,22.93h5.5v-10.55c5.4,1.12,10.12,8.5,15.13,11.01v-.46c1.63-2.75-1.05-17.35,.46-22.01Zm-31.19,22.01c2.1,.03,4.53,.04,5.96-.46v-22.01h-6.42c-.04,6.7-1.45,16.74,.46,22.47Zm51.37-5.5c-3.35,.04-7.96,.42-10.55-.46,.05-1.31,.18-1.96,.46-2.75,3.47,.06,7.48,.22,9.63-.92,.12-2.35,.33-3.45-1.38-4.13-.68-.29-.2-.57-.92,0-3.05,.06-5.99,.05-7.8-.92,.09-1.19,.2-1.56,.46-2.29,3.64,0,7.56-.12,10.55-.46v-5.04h-16.97v22.47h16.97c.03-1.98,0-4.18-.46-5.5Zm-32.1,11.47c-.13-3.17-1.04-2.76-2.75-4.13-4.59,.17-5.29,2.15-7.8,4.13-.07,2.33-.14,4.35,.92,5.5,.86,2.36,2.91,2.22,4.59,3.67,2.6-.14,3.4-.89,5.04-1.83v-2.29c-.94,.18-.88,.11-1.38,.46-5.79,.36-7.02-2.22-4.59-5.96,2.6-.5,3.42,.17,5.96,.46Zm-37.15-3.67c-2.59-.03-5.91-.19-7.8,.46v11.47c2.02,.19,1.5,.18,3.21,.46,.25-.71,.51-2.6,.92-3.21,1.15-.78,4.38-1.52,5.5-1.83,.55-1.96,1.47-3.71,0-5.5-.57-.82-1.19-1.14-1.83-1.83Zm-.92,5.5h-3.21v-2.29c1.89-.12,1.32-.1,3.21,0v2.29Zm8.71,3.67v-1.38h.46v-.46h4.59v-2.75h-5.04v-1.38c1.16-.22,4.27-.35,4.59-.46h.92c-.05-1.31-.18-1.96-.46-2.75-2.84-.03-6.6-.26-8.71,.46v11.47c.79,.3,.45,.09,.92,.46,3.26,.06,6.74,.13,8.71-.92-.26-1.45-.4-1.33-.92-2.29h-5.04Zm16.51-7.34c-1.53-2.19-4.88-1.99-8.71-1.83-1,2.92-.52,8.21-.46,11.92,.79,.3,.45,.09,.92,.46,2.46-.2,2.38-.61,2.29-3.21,1.87,.61,3.66,2,5.04,3.21,1.25-.01,2.1-.02,2.75-.46h.46v-.46c-1.28-.83-2.01-1.79-3.67-2.29,.62-2.6,3.66-4.47,1.38-7.34Zm-3.21,3.67h-2.75v-2.29c.76-.15,1.53-.31,2.29-.46,.4,.54,.37,.52,.92,.92-.15,1.06-.21,1.14-.46,1.83Zm21.1,3.67v-1.38h.46v-.46h4.59c-.05-1.31-.18-1.96-.46-2.75h-4.59v-1.38c2.05-.36,4.47-.1,5.5-.92,.32-.5,.38-.87,0-1.38v-.92c-2.78-.09-7.38-.57-8.71,.92h-.46v.46h.46c-.04,3.48-.46,8.3,.46,11.01,3.26,.06,6.74,.13,8.71-.92-.09-1.19-.2-1.56-.46-2.29h-5.5Zm16.05-9.17c-.35,1.61-.57,3.48,0,5.04h-.46v.46c-2.4-.81-5.57-3.52-6.88-5.5h-.92c-.42,.49,.04,.04-.46,.46,.57,2.73,.95,8.31,0,11.01,.54,.4,.52,.37,.92,.92,1.63-.15,1.53-.03,2.29-.92,.17-.29,.04-2.96,0-4.59,2.77,.43,5.6,3.08,6.88,5.04h1.38c.04-3.73,.54-8.98-.46-11.92h-2.29Zm4.13,.46v2.29h1.38c.42,.49-.04,.04,.46,.46-.06,3.36-.17,7.11,.92,9.17,1.06-.1,1.29-.09,1.83-.46h.92c-.06-2.45-.59-7.11,.46-8.71,.49-.35,.42-.29,1.38-.46-.05-1.31-.18-1.96-.46-2.75-2.35-.03-5.22-.11-6.88,.46Z"/>
    <path class="cls-12" d="M664.87,507.21c3.05-5.86,8.99-10.01,12.84-15.13,1.88-2.51,3.51-5.44,5.96-7.34-1.25-3.59-4.8-5.49-6.88-8.26-3.2-4.27-6.58-10.34-11.01-13.3-2.42,3.79-6.1,6.6-8.71,10.09-2.47,3.3-4.87,7.77-8.26,10.09,.32,3.03,7.44,11.33,9.63,12.84-.26,1.45-.4,1.33-.92,2.29h-.92c-3.57-6.83-10.52-11.5-14.68-17.89-1.81-.22-11.73-.84-13.3,0h-.92v.46c4.99,4.63,9.18,10.57,13.3,16.05,2.63,3.5,6.43,6.19,8.71,10.09,4.4,.53,10.74,.53,15.13,0Zm.46-26.14c2.28,.43,2.37,1.48,3.67,2.75-.36,1.99-1.34,2.8-2.75,3.67v.46h-.46c-.72-1.1-1.64-2.04-2.75-2.75,.37-2.33,1.29-2.61,2.29-4.13Zm3.21,24.77c-.3,.79-.09,.45-.46,.92v.46c2.49,.53,10.55,1.51,12.84,0,3.69-.74,5.82-5.63,7.8-8.26,4.65-6.15,12.05-11.27,15.59-18.34-3.28-1.12-9.2-.52-13.3-.46-4.23,4.5-9.16,9.27-12.84,14.22-2.87,3.85-5.65,8.79-9.63,11.47Zm-26.14,8.26c-.04,3.1-.34,7.28,.46,9.63h-.46v.46c-1.77-.63-12.67-9.46-13.76-11.01h-1.38v22.93c2.22,.03,4.88,.07,6.42-.46v-10.09c3.5,1.01,11.7,8.33,14.22,11.01h.92v-22.93c-2.22-.03-4.88-.07-6.42,.46Zm41.73,0c-1.53-.53-4.21-.51-6.42-.46v10.55c-2.87-1.01-12.04-8.56-13.76-11.01h-1.38c-.04,6.83-1.49,17.08,.46,22.93h5.5v-10.55c5.4,1.12,10.12,8.5,15.13,11.01v-.46c1.63-2.75-1.05-17.35,.46-22.01Zm-31.19,22.01c2.1,.03,4.53,.04,5.96-.46v-22.01h-6.42c-.04,6.7-1.45,16.74,.46,22.47Zm51.37-5.5c-3.35,.04-7.96,.42-10.55-.46,.05-1.31,.18-1.96,.46-2.75,3.47,.06,7.48,.22,9.63-.92,.12-2.35,.33-3.45-1.38-4.13-.68-.29-.2-.57-.92,0-3.05,.06-5.99,.05-7.8-.92,.09-1.19,.2-1.56,.46-2.29,3.64,0,7.56-.12,10.55-.46v-5.04h-16.97v22.47h16.97c.03-1.98,0-4.18-.46-5.5Zm-32.1,11.47c-.13-3.17-1.04-2.76-2.75-4.13-4.59,.17-5.29,2.15-7.8,4.13-.07,2.33-.14,4.35,.92,5.5,.86,2.36,2.91,2.22,4.59,3.67,2.6-.14,3.4-.89,5.04-1.83v-2.29c-.94,.18-.88,.11-1.38,.46-5.79,.36-7.02-2.22-4.59-5.96,2.6-.5,3.42,.17,5.96,.46Zm-37.15-3.67c-2.59-.03-5.91-.19-7.8,.46v11.47c2.02,.19,1.5,.18,3.21,.46,.25-.71,.51-2.6,.92-3.21,1.15-.78,4.38-1.52,5.5-1.83,.55-1.96,1.47-3.71,0-5.5-.57-.82-1.19-1.14-1.83-1.83Zm-.92,5.5h-3.21v-2.29c1.89-.12,1.32-.1,3.21,0v2.29Zm8.71,3.67v-1.38h.46v-.46h4.59v-2.75h-5.04v-1.38c1.16-.22,4.27-.35,4.59-.46h.92c-.05-1.31-.18-1.96-.46-2.75-2.84-.03-6.6-.26-8.71,.46v11.47c.79,.3,.45,.09,.92,.46,3.26,.06,6.74,.13,8.71-.92-.26-1.45-.4-1.33-.92-2.29h-5.04Zm16.51-7.34c-1.53-2.19-4.88-1.99-8.71-1.83-1,2.92-.52,8.21-.46,11.92,.79,.3,.45,.09,.92,.46,2.46-.19,2.38-.61,2.29-3.21,1.87,.61,3.66,2,5.04,3.21,1.25-.01,2.1-.02,2.75-.46h.46v-.46c-1.28-.83-2.01-1.79-3.67-2.29,.62-2.6,3.66-4.47,1.38-7.34Zm-3.21,3.67h-2.75v-2.29c.76-.15,1.53-.31,2.29-.46,.4,.54,.37,.52,.92,.92-.15,1.06-.21,1.14-.46,1.83Zm21.1,3.67v-1.38h.46v-.46h4.59c-.05-1.31-.18-1.96-.46-2.75h-4.59v-1.38c2.05-.36,4.47-.1,5.5-.92,.32-.5,.38-.87,0-1.38v-.92c-2.78-.09-7.38-.57-8.71,.92h-.46v.46h.46c-.04,3.48-.46,8.3,.46,11.01,3.26,.06,6.74,.13,8.71-.92-.09-1.19-.2-1.56-.46-2.29h-5.5Zm16.05-9.17c-.35,1.61-.57,3.48,0,5.04h-.46v.46c-2.4-.81-5.57-3.52-6.88-5.5h-.92c-.42,.49,.04,.04-.46,.46,.57,2.73,.95,8.31,0,11.01,.54,.4,.52,.37,.92,.92,1.63-.15,1.53-.03,2.29-.92,.17-.29,.04-2.96,0-4.59,2.77,.43,5.6,3.08,6.88,5.04h1.38c.04-3.73,.54-8.98-.46-11.92h-2.29Zm4.13,.46v2.29h1.38c.42,.49-.04,.04,.46,.46-.06,3.36-.17,7.11,.92,9.17,1.06-.1,1.29-.09,1.83-.46h.92c-.06-2.45-.59-7.11,.46-8.71,.49-.35,.42-.29,1.38-.46-.05-1.31-.18-1.96-.46-2.75-2.35-.03-5.22-.11-6.88,.46Z"/>
    <path class="cls-12" d="M3037.97,507.95c3.05-5.86,8.99-10.01,12.84-15.13,1.88-2.51,3.51-5.44,5.96-7.34-1.25-3.59-4.81-5.49-6.88-8.26-3.2-4.27-6.58-10.34-11.01-13.3-2.42,3.79-6.1,6.6-8.71,10.09-2.47,3.3-4.87,7.77-8.26,10.09,.32,3.03,7.44,11.33,9.63,12.84-.26,1.45-.4,1.33-.92,2.29h-.92c-3.57-6.83-10.52-11.5-14.68-17.89-1.81-.22-11.73-.84-13.3,0h-.92v.46c4.99,4.63,9.18,10.57,13.3,16.05,2.63,3.5,6.43,6.19,8.71,10.09,4.4,.53,10.74,.53,15.13,0Zm.46-26.14c2.28,.43,2.37,1.48,3.67,2.75-.36,1.99-1.34,2.8-2.75,3.67v.46h-.46c-.72-1.1-1.64-2.04-2.75-2.75,.37-2.33,1.29-2.61,2.29-4.13Zm3.21,24.77c-.3,.79-.09,.45-.46,.92v.46c2.49,.53,10.55,1.51,12.84,0,3.69-.74,5.82-5.63,7.8-8.26,4.65-6.15,12.05-11.27,15.59-18.34-3.28-1.12-9.2-.52-13.3-.46-4.23,4.5-9.16,9.27-12.84,14.22-2.87,3.85-5.65,8.79-9.63,11.47Zm-26.14,8.26c-.04,3.1-.34,7.28,.46,9.63h-.46v.46c-1.77-.63-12.67-9.46-13.76-11.01h-1.38v22.93c2.22,.03,4.88,.07,6.42-.46v-10.09c3.5,1.01,11.7,8.33,14.22,11.01h.92v-22.93c-2.22-.03-4.88-.07-6.42,.46Zm41.73,0c-1.53-.53-4.21-.51-6.42-.46v10.55c-2.87-1.01-12.04-8.56-13.76-11.01h-1.38c-.04,6.83-1.49,17.08,.46,22.93h5.5v-10.55c5.4,1.12,10.12,8.5,15.13,11.01v-.46c1.63-2.75-1.05-17.35,.46-22.01Zm-31.19,22.01c2.1,.03,4.53,.04,5.96-.46v-22.01h-6.42c-.04,6.7-1.45,16.74,.46,22.47Zm51.37-5.5c-3.35,.04-7.96,.42-10.55-.46,.05-1.31,.18-1.96,.46-2.75,3.47,.06,7.48,.22,9.63-.92,.12-2.35,.33-3.45-1.38-4.13-.68-.29-.2-.57-.92,0-3.05,.06-5.99,.05-7.8-.92,.09-1.19,.2-1.56,.46-2.29,3.64,0,7.56-.12,10.55-.46v-5.04h-16.97v22.47h16.97c.03-1.98,0-4.18-.46-5.5Zm-32.1,11.47c-.13-3.17-1.04-2.76-2.75-4.13-4.59,.17-5.29,2.15-7.8,4.13-.07,2.33-.14,4.35,.92,5.5,.86,2.36,2.91,2.22,4.59,3.67,2.6-.14,3.4-.89,5.04-1.83v-2.29c-.94,.18-.88,.11-1.38,.46-5.79,.36-7.01-2.22-4.59-5.96,2.6-.5,3.42,.17,5.96,.46Zm-37.15-3.67c-2.59-.03-5.91-.19-7.8,.46v11.47c2.02,.19,1.5,.18,3.21,.46,.25-.71,.51-2.6,.92-3.21,1.15-.78,4.38-1.52,5.5-1.83,.55-1.96,1.47-3.71,0-5.5-.57-.82-1.19-1.14-1.83-1.83Zm-.92,5.5h-3.21v-2.29c1.89-.12,1.32-.1,3.21,0v2.29Zm8.71,3.67v-1.38h.46v-.46h4.59v-2.75h-5.04v-1.38c1.16-.22,4.27-.35,4.59-.46h.92c-.05-1.31-.18-1.96-.46-2.75-2.84-.03-6.6-.26-8.71,.46v11.47c.79,.3,.45,.09,.92,.46,3.26,.06,6.74,.13,8.71-.92-.26-1.45-.4-1.33-.92-2.29h-5.04Zm16.51-7.34c-1.53-2.19-4.88-1.99-8.71-1.83-1,2.92-.52,8.21-.46,11.92,.79,.3,.45,.09,.92,.46,2.46-.19,2.38-.61,2.29-3.21,1.87,.61,3.66,2,5.04,3.21,1.25-.01,2.1-.02,2.75-.46h.46v-.46c-1.28-.83-2.01-1.79-3.67-2.29,.62-2.6,3.66-4.47,1.38-7.34Zm-3.21,3.67h-2.75v-2.29c.76-.15,1.53-.31,2.29-.46,.4,.54,.37,.52,.92,.92-.15,1.06-.21,1.14-.46,1.83Zm21.1,3.67v-1.38h.46v-.46h4.59c-.05-1.31-.18-1.96-.46-2.75h-4.59v-1.38c2.05-.36,4.47-.1,5.5-.92,.32-.5,.38-.87,0-1.38v-.92c-2.78-.09-7.38-.57-8.71,.92h-.46v.46h.46c-.04,3.48-.46,8.3,.46,11.01,3.26,.06,6.74,.13,8.71-.92-.09-1.19-.2-1.56-.46-2.29h-5.5Zm16.05-9.17c-.35,1.61-.57,3.48,0,5.04h-.46v.46c-2.4-.81-5.57-3.52-6.88-5.5h-.92c-.42,.49,.04,.04-.46,.46,.57,2.73,.95,8.31,0,11.01,.54,.4,.52,.37,.92,.92,1.63-.15,1.53-.03,2.29-.92,.17-.29,.04-2.96,0-4.59,2.77,.43,5.6,3.08,6.88,5.04h1.38c.04-3.73,.54-8.98-.46-11.92h-2.29Zm4.13,.46v2.29h1.38c.42,.49-.04,.04,.46,.46-.06,3.36-.17,7.11,.92,9.17,1.06-.1,1.29-.09,1.83-.46h.92c-.06-2.45-.59-7.11,.46-8.71,.49-.35,.42-.29,1.38-.46-.05-1.31-.18-1.96-.46-2.75-2.35-.03-5.22-.11-6.88,.46Z"/>
  </g>
</svg>